<svg xmlns="http://www.w3.org/2000/svg" width="49.645" height="16.555" viewBox="0 0 49.645 16.555">
  <g id="_369106" data-name="369106" transform="translate(-104.1 -367.8)">
    <rect id="Rectangle_4025" data-name="Rectangle 4025" width="21" height="6.996" transform="translate(104.1 377.346)" fill="#84b740"/>
    <rect id="Rectangle_4026" data-name="Rectangle 4026" width="21" height="7.002" transform="translate(104.1 367.8)" fill="#259bd6"/>
    <path id="Path_2558" data-name="Path 2558" d="M723.6,507.346l-.094.019a3.064,3.064,0,0,1-.68.087c-.549,0-1.2-.281-1.2-1.6,0-.68.112-1.584,1.135-1.584h.006a3.077,3.077,0,0,1,.748.143l.081.025Zm.168-6.591-.168.031v2.444l-.15-.044-.043-.012a3.444,3.444,0,0,0-.929-.162c-2.045,0-2.475,1.546-2.475,2.843a2.522,2.522,0,0,0,2.737,2.8,5.548,5.548,0,0,0,1.827-.256.807.807,0,0,0,.686-.885V500.5c-.486.087-.991.175-1.484.256" transform="translate(-577.497 -124.426)" fill="#27292d"/>
    <path id="Path_2559" data-name="Path 2559" d="M822.223,544.708l-.087.025-.312.081a3.256,3.256,0,0,1-.755.118c-.48,0-.767-.237-.767-.642,0-.262.118-.7.9-.7h1.016Zm-.717-4.408a6.9,6.9,0,0,0-2.083.362l-.524.156.175,1.185.511-.168a6.018,6.018,0,0,1,1.7-.287c.225,0,.91,0,.91.742v.324h-.954c-1.74,0-2.544.555-2.544,1.746,0,1.016.742,1.627,1.989,1.627a6.428,6.428,0,0,0,1.384-.187l.025-.006.025.006.156.025c.486.087.991.174,1.484.268V542.2c0-1.26-.761-1.9-2.257-1.9" transform="translate(-670.043 -161.744)" fill="#27292d"/>
    <path id="Path_2560" data-name="Path 2560" d="M627.923,544.708l-.087.025-.312.081a3.208,3.208,0,0,1-.754.118c-.48,0-.767-.237-.767-.642,0-.262.118-.7.9-.7h1.016v1.122Zm-.711-4.408a6.871,6.871,0,0,0-2.083.362l-.524.156L624.78,542l.511-.168a6.017,6.017,0,0,1,1.7-.287c.224,0,.91,0,.91.742v.324h-.954c-1.74,0-2.55.555-2.55,1.746,0,1.016.742,1.627,2,1.627a6.427,6.427,0,0,0,1.384-.187l.025-.006.025.006.15.025c.493.087.991.174,1.484.274v-3.891c.006-1.272-.754-1.908-2.251-1.908" transform="translate(-487.858 -161.744)" fill="#27292d"/>
    <path id="Path_2561" data-name="Path 2561" d="M487.649,540.406a4.207,4.207,0,0,0-1.69.374l-.062.031-.056-.044a2.558,2.558,0,0,0-1.515-.368,6.2,6.2,0,0,0-1.79.268c-.53.162-.736.418-.736.9v4.446h1.659V541.9l.081-.025a2.111,2.111,0,0,1,.73-.131.656.656,0,0,1,.723.755v3.517h1.634v-3.585a1.2,1.2,0,0,0-.05-.362l-.056-.106.112-.05a1.965,1.965,0,0,1,.811-.168.661.661,0,0,1,.723.755v3.517h1.627v-3.679c0-1.3-.7-1.933-2.145-1.933" transform="translate(-354.149 -161.838)" fill="#27292d"/>
    <path id="Path_2562" data-name="Path 2562" d="M695.637,372.364a5.657,5.657,0,0,1-.966-.087l-.094-.019v-2.4a1.176,1.176,0,0,0-.044-.343l-.05-.1.106-.044c.025-.012.05-.019.081-.031l.019-.012.112-.037a.16.16,0,0,1,.044-.012,3.871,3.871,0,0,1,.854-.1h.006c1.016,0,1.135.9,1.135,1.584-.006,1.322-.661,1.6-1.2,1.6m-.006-4.564h-.044a2.938,2.938,0,0,0-2.282.773,1.559,1.559,0,0,0-.3.929h0v2.475a.73.73,0,0,1-.05.312l-.056.106h-3.012v-1.721h-.006a2.565,2.565,0,0,0-2.662-2.812H685.7c-.062.443-.112.755-.174,1.2h1.509c.792,0,1.21.673,1.21,1.708V372.5l-.106-.056a1.148,1.148,0,0,0-.355-.05h-2.606c-.05.33-.112.761-.181,1.191h8.012c.274-.056.592-.106.867-.15a4.513,4.513,0,0,0,1.677.306,2.975,2.975,0,0,0,.075-5.942" transform="translate(-544.679)" fill="#27292d"/>
    <path id="Path_2563" data-name="Path 2563" d="M491.053,375.347h.075c1.74,0,2.55-.574,2.55-1.989a1.821,1.821,0,0,0-1.989-1.827h-1.6a.691.691,0,0,1-.767-.736c0-.312.118-.7.9-.7h3.5c.075-.455.112-.742.181-1.2h-3.641c-1.7,0-2.55.711-2.55,1.9s.742,1.783,1.989,1.783h1.6a.757.757,0,0,1,.767.779.783.783,0,0,1-.9.8h-.268l-5.132-.013h-.935c-.792,0-1.347-.449-1.347-1.49v-.717c0-1.085.43-1.758,1.347-1.758h1.521c.069-.461.112-.754.175-1.191h-2.076a2.6,2.6,0,0,0-2.662,2.856h0v.811a2.461,2.461,0,0,0,2.662,2.681h1.515l2.781.006h2.295Z" transform="translate(-354.149 -1.031)" fill="#27292d"/>
  </g>
</svg>
