<svg xmlns="http://www.w3.org/2000/svg" width="22.104" height="36.508" viewBox="0 0 22.104 36.508">
  <g id="_x33_6_hourglass" transform="translate(-101.001)">
    <path id="Path_8890" data-name="Path 8890" d="M144.537,39.335V36.627H126v2.708a13.568,13.568,0,0,0,5.6,10.93,2.479,2.479,0,0,1,0,4.008A13.563,13.563,0,0,0,126,65.2v2.708h18.539V65.2a13.563,13.563,0,0,0-5.607-10.932,2.484,2.484,0,0,1-1.018-2h0a2.49,2.49,0,0,1,1.022-2.006A13.568,13.568,0,0,0,144.537,39.335Z" transform="translate(-23.215 -34.015)" fill="#d8ecfe"/>
    <path id="Path_8891" data-name="Path 8891" d="M138.938,50.264a13.568,13.568,0,0,0,5.6-10.929V36.627h-3.032v2.708a13.567,13.567,0,0,1-5.6,10.929,2.49,2.49,0,0,0-1.022,2.006h0a2.485,2.485,0,0,0,1.018,2A13.562,13.562,0,0,1,141.509,65.2v2.708h3.032V65.2a13.563,13.563,0,0,0-5.607-10.932,2.484,2.484,0,0,1-1.018-2h0a2.489,2.489,0,0,1,1.022-2.006Z" transform="translate(-23.218 -34.015)" fill="#c4e2ff"/>
    <path id="Path_8892" data-name="Path 8892" d="M156,356.035v-.36a6.339,6.339,0,0,1,2.577-4.844,7.226,7.226,0,0,1,9.107,0,6.339,6.339,0,0,1,2.577,4.844v.36Z" transform="translate(-51.076 -324.315)" fill="#ffd15b"/>
    <path id="Path_8893" data-name="Path 8893" d="M102.285,2.613h19.537a1.3,1.3,0,0,0,1.283-1.306A1.3,1.3,0,0,0,121.822,0H102.285A1.3,1.3,0,0,0,101,1.307,1.3,1.3,0,0,0,102.285,2.613Z" transform="translate(0 -0.001)" fill="#596c76"/>
    <path id="Path_8894" data-name="Path 8894" d="M102.285,477.986h19.537a1.306,1.306,0,0,0,0-2.612H102.285a1.306,1.306,0,0,0,0,2.612Z" transform="translate(0 -441.478)" fill="#596c76"/>
    <g id="Group_117699" data-name="Group 117699" transform="translate(111.502 15.977)">
      <path id="Path_8895" data-name="Path 8895" d="M248.823,231.631a.551.551,0,0,1-.551-.551v-.735a.551.551,0,1,1,1.1,0v.735A.551.551,0,0,1,248.823,231.631Zm0-2.865a.551.551,0,0,1-.551-.551v-.735a.551.551,0,1,1,1.1,0v.735A.551.551,0,0,1,248.823,228.766Zm0-2.865a.551.551,0,0,1-.551-.551v-.735a.551.551,0,1,1,1.1,0v.735A.551.551,0,0,1,248.823,225.9Z" transform="translate(-248.272 -224.065)" fill="#feb137"/>
    </g>
    <path id="Path_8896" data-name="Path 8896" d="M157.742,97.956a11.288,11.288,0,0,0,3.136,6.242,5.423,5.423,0,0,0,7.741,0,11.288,11.288,0,0,0,3.136-6.242Z" transform="translate(-52.695 -90.971)" fill="#feb137"/>
    <path id="Path_8897" data-name="Path 8897" d="M344.183,0h-3.748a1.3,1.3,0,0,1,1.284,1.306,1.3,1.3,0,0,1-1.284,1.306h3.748a1.3,1.3,0,0,0,1.283-1.306A1.3,1.3,0,0,0,344.183,0Z" transform="translate(-222.361)" fill="#465a61"/>
    <path id="Path_8898" data-name="Path 8898" d="M344.183,475.373h-3.748a1.306,1.306,0,0,1,0,2.612h3.748a1.306,1.306,0,0,0,0-2.612Z" transform="translate(-222.361 -441.477)" fill="#465a61"/>
    <path id="Path_8899" data-name="Path 8899" d="M337.161,389.308a13.323,13.323,0,0,1,.45,3.429v.531h.893v-.36A5.753,5.753,0,0,0,337.161,389.308Z" transform="translate(-219.321 -361.548)" fill="#ffc344"/>
    <path id="Path_8900" data-name="Path 8900" d="M303.938,97.957a13.492,13.492,0,0,1-2.922,6.813,5.435,5.435,0,0,0,.661-.571,11.288,11.288,0,0,0,3.136-6.242h-.874Z" transform="translate(-185.753 -90.972)" fill="#f6ab31"/>
  </g>
</svg>
