<svg xmlns="http://www.w3.org/2000/svg" width="20" height="20" viewBox="0 0 20 20">
  <g id="Arrow" transform="translate(-12 -18)">
    <rect id="Rectangle_12160" data-name="Rectangle 12160" width="20" height="20" transform="translate(12 18)" fill="none"/>
    <path id="Path" d="M.221.219A.75.75,0,0,1,1.2.148l.084.073L4.22,3.172,7.161.221A.75.75,0,0,1,8.137.146l.084.072a.75.75,0,0,1,.075.976l-.072.084L4.752,4.765a.75.75,0,0,1-.979.073L3.69,4.765.219,1.279A.75.75,0,0,1,.221.219Z" transform="translate(17.779 25.507)" fill="#1b1e1f"/>
  </g>
</svg>
