<svg xmlns="http://www.w3.org/2000/svg" width="30" height="32" viewBox="0 0 30 32">
  <g id="Currency" transform="translate(-10.514 0.475)">
    <g id="Dollar" transform="translate(10.514 -0.475)">
      <g id="Coin" transform="translate(0 0)">
        <g id="Bottom">
          <ellipse id="Ellipse_475" data-name="Ellipse 475" cx="15" cy="16" rx="15" ry="16" transform="translate(0 0)" fill="#e88102"/>
          <circle id="Ellipse_476" data-name="Ellipse 476" cx="14.533" cy="14.533" r="14.533" transform="translate(0.467 0.31)" fill="#fdd835"/>
        </g>
        <g id="Shade" transform="translate(0.467 0.31)">
          <path id="Path_6938" data-name="Path 6938" d="M34.492,1.769,15.363,20.892A14.378,14.378,0,0,1,14.2,16.158L29.752.6a14.607,14.607,0,0,1,4.74,1.169Z" transform="translate(-14.158 -0.564)" fill="#fff" opacity="0.5"/>
          <path id="Path_6939" data-name="Path 6939" d="M104.621,71.326,84.826,91.121A14.508,14.508,0,0,1,81.5,88.544L102.05,68A14.521,14.521,0,0,1,104.621,71.326Z" transform="translate(-77.425 -63.925)" fill="#fff" opacity="0.5"/>
          <path id="Path_6940" data-name="Path 6940" d="M78.8,44.7,58.3,65.2c-.318-.372-.623-.761-.9-1.163L77.638,43.8C78.04,44.082,78.429,44.387,78.8,44.7Z" transform="translate(-54.769 -41.175)" fill="#fff" opacity="0.5"/>
          <path id="Path_6941" data-name="Path 6941" d="M188.667,157.464l-17.7,17.7a15.319,15.319,0,0,1-1.564-.5l18.77-18.77A15.315,15.315,0,0,1,188.667,157.464Z" transform="translate(-160.057 -146.557)" fill="#fff" opacity="0.5"/>
          <path id="Path_6942" data-name="Path 6942" d="M42.566,14.533c0,.1,0,.2-.006.3a14.53,14.53,0,0,0-29.054,0c0-.1-.006-.2-.006-.3a14.533,14.533,0,1,1,29.066,0Z" transform="translate(-13.5)" fill="#fff" opacity="0.5"/>
          <path id="Path_6943" data-name="Path 6943" d="M136.666,131.731a11.387,11.387,0,0,1-20.166,7.251A11.387,11.387,0,0,0,133.64,124,11.361,11.361,0,0,1,136.666,131.731Z" transform="translate(-110.327 -116.569)" fill="#fff" opacity="0.5"/>
        </g>
        <g id="Top" transform="translate(3.613 3.606)">
          <circle id="Ellipse_477" data-name="Ellipse 477" cx="11" cy="11" r="11" transform="translate(0.387 0.394)" fill="#f39e09"/>
          <path id="Path_6944" data-name="Path 6944" d="M86.017,58.955A11.389,11.389,0,0,0,69.955,75.017,11.388,11.388,0,1,1,86.017,58.955Z" transform="translate(-66 -55)" fill="#e88102"/>
        </g>
      </g>
      <g id="Icon" transform="translate(4.812 4.805)">
        <path id="Bottom-2" d="M187.038,129.291a1.43,1.43,0,0,0-.312.971,1.385,1.385,0,0,0,.36,1,3.634,3.634,0,0,0,1.151.707c.527.222,1.025.455,1.492.7a5.713,5.713,0,0,1,1.211.821,3.323,3.323,0,0,1,.8,1.073,3.828,3.828,0,0,0,.288.449v1.025a3.192,3.192,0,0,1-.923,2.373,3.976,3.976,0,0,1-2.511,1.073v1.7h-1.354v-1.72a4.342,4.342,0,0,1-2.847-1.271,4.024,4.024,0,0,1-.989-2.835v-.9l2.865.9a2.208,2.208,0,0,0,.431,1.474,1.523,1.523,0,0,0,1.223.5,1.2,1.2,0,0,0,.911-.348,1.311,1.311,0,0,0,.33-.947,1.556,1.556,0,0,0-.33-1.055,3.105,3.105,0,0,0-1.163-.725c-.557-.228-1.067-.455-1.54-.689a5.373,5.373,0,0,1-1.217-.809,3.218,3.218,0,0,1-.785-1.061,3.56,3.56,0,0,1-.27-1.462v-.953a7.259,7.259,0,0,1,.971-1.414,4.164,4.164,0,0,1,2.583-1.085V125h1.354v1.828a3.813,3.813,0,0,1,2.445,1.282,8.3,8.3,0,0,1,.887,1.768v.9h-2.877a2.316,2.316,0,0,0-.342-1.36,1.121,1.121,0,0,0-.971-.473,1.084,1.084,0,0,0-.869.348Z" transform="translate(-177.563 -122.004)" fill="#db6704"/>
        <path id="Top-2" d="M189.065,121.045a1.556,1.556,0,0,0-.33-1.055,3.105,3.105,0,0,0-1.163-.725c-.557-.228-1.067-.455-1.54-.689a5.372,5.372,0,0,1-1.217-.809,3.219,3.219,0,0,1-.785-1.061,3.58,3.58,0,0,1-.27-1.462,3.131,3.131,0,0,1,.971-2.367,4.2,4.2,0,0,1,2.583-1.085V110h1.354v1.828a3.813,3.813,0,0,1,2.445,1.282,3.98,3.98,0,0,1,.887,2.667h-2.877a2.316,2.316,0,0,0-.342-1.36,1.121,1.121,0,0,0-.971-.473,1.1,1.1,0,0,0-.869.354,1.43,1.43,0,0,0-.312.971,1.384,1.384,0,0,0,.36,1,3.665,3.665,0,0,0,1.145.707c.527.222,1.025.455,1.492.7a5.713,5.713,0,0,1,1.211.821,3.323,3.323,0,0,1,.8,1.073,3.431,3.431,0,0,1,.288,1.468,3.192,3.192,0,0,1-.923,2.373,3.976,3.976,0,0,1-2.511,1.073v1.7h-1.354v-1.72a4.342,4.342,0,0,1-2.847-1.271,4.024,4.024,0,0,1-.989-2.835h2.865a2.208,2.208,0,0,0,.432,1.474,1.522,1.522,0,0,0,1.223.5,1.2,1.2,0,0,0,.911-.348A1.3,1.3,0,0,0,189.065,121.045Z" transform="translate(-177.469 -107.902)" fill="#fdd835"/>
        <g id="Shade-2">
          <path id="Path_6945" data-name="Path 6945" d="M194.7,145.779a3.7,3.7,0,0,1,1.235-.779l-2.032,2.038A3.026,3.026,0,0,1,194.7,145.779Z" transform="translate(-187.434 -140.805)" fill="#fff" opacity="0.5"/>
          <path id="Path_6946" data-name="Path 6946" d="M251.049,110l-.749.749V110Z" transform="translate(-240.454 -107.902)" fill="#fff" opacity="0.5"/>
          <path id="Path_6947" data-name="Path 6947" d="M194.626,229.311l-4.9,4.9A4.117,4.117,0,0,1,187.309,233a3.628,3.628,0,0,1-.809-1.456l1.378-1.378h1.306a2.208,2.208,0,0,0,.432,1.474,1.523,1.523,0,0,0,1.223.5,1.2,1.2,0,0,0,.911-.348,1.311,1.311,0,0,0,.33-.947,1.556,1.556,0,0,0-.33-1.055,3.1,3.1,0,0,0-1.163-.725c-.4-.162-.767-.324-1.121-.491l1.774-1.774c.5.216.965.431,1.408.659a5.713,5.713,0,0,1,1.211.821A3.381,3.381,0,0,1,194.626,229.311Z" transform="translate(-180.477 -217.703)" fill="#fff" opacity="0.5"/>
          <path id="Path_6948" data-name="Path 6948" d="M288.547,173.868H286l2.068-2.068A4.283,4.283,0,0,1,288.547,173.868Z" transform="translate(-274.014 -165.999)" fill="#fff" opacity="0.5"/>
          <path id="Path_6949" data-name="Path 6949" d="M183.5,282.8h.426l-.408.408C183.506,283.076,183.5,282.938,183.5,282.8Z" transform="translate(-177.657 -270.347)" fill="#fff" opacity="0.5"/>
          <path id="Path_6950" data-name="Path 6950" d="M206.451,200.775a2.277,2.277,0,0,0,.473.366l-1.774,1.774a4.6,4.6,0,0,1-.875-.629A3.043,3.043,0,0,1,204,202l2.1-2.1A1.33,1.33,0,0,0,206.451,200.775Z" transform="translate(-196.928 -192.415)" fill="#fff" opacity="0.5"/>
          <path id="Path_6951" data-name="Path 6951" d="M265.885,147.069l-2,2a1.689,1.689,0,0,0-.264-.623,1.088,1.088,0,0,0-.719-.455l1.792-1.792A3.581,3.581,0,0,1,265.885,147.069Z" transform="translate(-252.298 -141.933)" fill="#fff" opacity="0.5"/>
          <path id="Path_6952" data-name="Path 6952" d="M258.4,369.1l.7-.7v.7Z" transform="translate(-248.068 -350.817)" fill="#fff" opacity="0.5"/>
          <path id="Path_6953" data-name="Path 6953" d="M293.836,314.2a2.968,2.968,0,0,1-.731,1.163,3.412,3.412,0,0,1-1.2.773Z" transform="translate(-279.56 -299.865)" fill="#fff" opacity="0.5"/>
          <path id="Path_6954" data-name="Path 6954" d="M105.687,78.9A27.219,27.219,0,0,0,89.494,94.4c-.252-.186-.5-.378-.737-.587a11.384,11.384,0,0,1,16.055-16.055A12.307,12.307,0,0,1,105.687,78.9Z" transform="translate(-86 -75)" fill="#fff" opacity="0.25"/>
        </g>
      </g>
    </g>
  </g>
</svg>
