<svg xmlns="http://www.w3.org/2000/svg" xmlns:xlink="http://www.w3.org/1999/xlink" width="50" height="33" viewBox="0 0 50 33">
  <defs>
    <clipPath id="clip-path">
      <rect id="Rectangle_140" data-name="Rectangle 140" width="50" height="33" rx="4" fill="#fff"/>
    </clipPath>
  </defs>
  <g id="Mask_Group_1" data-name="Mask Group 1" clip-path="url(#clip-path)">
    <g id="Group_117665" data-name="Group 117665" transform="translate(-1730.406 -1042.452)">
      <g id="Group_757" data-name="Group 757" transform="translate(1729.427 1044.208)">
        <g id="Group_751" data-name="Group 751" transform="translate(0 16.085)">
          <path id="Path_766" data-name="Path 766" d="M1729.427,1113.707v2.68h51.961v-2.68h-51.961Z" transform="translate(-1729.427 -1113.707)" fill="#fff"/>
        </g>
        <g id="Group_752" data-name="Group 752" transform="translate(26.227 10.723)">
          <rect id="Rectangle_31" data-name="Rectangle 31" width="25.733" height="2.682" fill="#fff"/>
        </g>
        <g id="Group_753" data-name="Group 753" transform="translate(0 21.447)">
          <rect id="Rectangle_32" data-name="Rectangle 32" width="51.961" height="2.681" fill="#fff"/>
        </g>
        <g id="Group_754" data-name="Group 754" transform="translate(0 26.809)">
          <path id="Path_767" data-name="Path 767" d="M1729.427,1155.907a4.408,4.408,0,0,0,.364,1.755h51.232a4.392,4.392,0,0,0,.365-1.755v-.926h-51.961Z" transform="translate(-1729.427 -1154.981)" fill="#fff"/>
        </g>
        <g id="Group_755" data-name="Group 755" transform="translate(26.227 0)">
          <path id="Path_768" data-name="Path 768" d="M1855.747,1051.793h-25.369v2.68h25.733v-.926A4.394,4.394,0,0,0,1855.747,1051.793Z" transform="translate(-1830.378 -1051.793)" fill="#fff"/>
        </g>
        <g id="Group_756" data-name="Group 756" transform="translate(26.227 5.362)">
          <rect id="Rectangle_33" data-name="Rectangle 33" width="25.733" height="2.681" fill="#fff"/>
        </g>
      </g>
      <g id="Group_765" data-name="Group 765" transform="translate(1729.427 1041.545)">
        <g id="Group_758" data-name="Group 758" transform="translate(26.227 0)">
          <path id="Path_769" data-name="Path 769" d="M1851.695,1041.545h-21.317v2.662h25.369A4.416,4.416,0,0,0,1851.695,1041.545Z" transform="translate(-1830.378 -1041.545)" fill="#bf2033"/>
        </g>
        <g id="Group_759" data-name="Group 759" transform="translate(26.227 5.343)">
          <rect id="Rectangle_34" data-name="Rectangle 34" width="25.733" height="2.681" fill="#bf2033"/>
        </g>
        <g id="Group_760" data-name="Group 760" transform="translate(26.227 10.705)">
          <rect id="Rectangle_35" data-name="Rectangle 35" width="25.733" height="2.68" fill="#bf2033"/>
        </g>
        <g id="Group_761" data-name="Group 761" transform="translate(26.227 16.067)">
          <rect id="Rectangle_36" data-name="Rectangle 36" width="25.733" height="2.681" fill="#bf2033"/>
        </g>
        <g id="Group_762" data-name="Group 762" transform="translate(0 21.428)">
          <rect id="Rectangle_37" data-name="Rectangle 37" width="51.961" height="2.681" fill="#bf2033"/>
        </g>
        <g id="Group_763" data-name="Group 763" transform="translate(0 26.79)">
          <rect id="Rectangle_38" data-name="Rectangle 38" width="51.961" height="2.681" fill="#bf2033"/>
        </g>
        <g id="Group_764" data-name="Group 764" transform="translate(0.364 32.151)">
          <path id="Path_770" data-name="Path 770" d="M1734.88,1167.96h43.127a4.416,4.416,0,0,0,4.052-2.662h-51.232A4.417,4.417,0,0,0,1734.88,1167.96Z" transform="translate(-1730.827 -1165.298)" fill="#bf2033"/>
        </g>
      </g>
      <g id="Group_766" data-name="Group 766" transform="translate(1729.427 1041.545)">
        <path id="Path_771" data-name="Path 771" d="M1755.654,1057.612v-16.067h-21.811a4.4,4.4,0,0,0-3.315,1.5h.663l.241-.741.24.741h.78l-.631.459.241.742-.631-.459-.631.459.241-.742-.561-.407a4.4,4.4,0,0,0-1.055,2.861v14.331h26.227Zm-1.6-2.052-.631-.458-.631.458.24-.741-.63-.458h.779l.241-.742.24.742h.78l-.631.458Zm-20.3-.168.241.742h.78l-.631.459.241.742-.63-.458-.631.458.241-.741-.631-.459h.78Zm1.719-.573-.631-.458h.78l.241-.742.241.742h.78l-.631.458.241.741-.632-.458-.63.458Zm-.661-8h.779l.241-.742.241.742h.78l-.631.458.241.742-.631-.458-.631.458.241-.742Zm4.391,0h.78l.241-.742.241.742h.78l-.631.458.241.742-.631-.458-.631.458.24-.742Zm4.391,0h.78l.241-.742.241.742h.781l-.631.458.241.742-.631-.458-.63.458.24-.742Zm4.391,0h.78l.241-.742.241.742h.78l-.631.458.241.742-.632-.458-.631.458.241-.742Zm-.123,5.663-.631.459.241.742-.631-.459-.631.459.241-.743-.63-.458h.78l.241-.741.24.741Zm-.3,4.856-.632-.458-.631.458.241-.742-.631-.459h.78l.242-.742.241.742h.78l-.631.459Zm-4.089-4.856-.631.459.241.742-.631-.459-.631.459.24-.742-.63-.459h.779l.241-.741.241.741Zm-.3,4.856-.631-.458-.63.458.241-.742-.631-.459h.78l.241-.742.241.742h.78l-.632.459Zm-1.717-8.493h.78l.241-.742.241.742h.78l-.632.459.241.741-.631-.459-.63.459.24-.741Zm3.847,3.082-.63-.458-.631.458.24-.741-.631-.458h.78l.242-.743.24.743h.779l-.63.458Zm-5.022-1.941.242.743h.78l-.631.458.241.741-.631-.458-.631.458.24-.741-.631-.458h.779Zm9.415,1.941-.631-.458-.631.458.241-.741-.632-.458h.78l.241-.743.241.743h.779l-.631.458Zm-2.2-1.882-.632-.459-.631.459.241-.742-.631-.458h.781l.24-.742.241.742h.78l-.631.458Zm-10.435-1.2h.78l.241-.742.241.742h.78l-.631.458.241.742-.631-.458-.631.458.241-.741Zm-1.175,1.14.241.743h.78l-.631.458.241.741-.631-.458-.631.458.24-.741-.63-.458h.779Zm2.172,1.755.241.741h.78l-.631.459.241.742-.631-.46-.631.46.241-.742-.631-.459h.78Zm.719,5.6-.631-.458-.631.458.241-.741-.631-.459h.78l.241-.742.241.742h.78l-.632.459Zm1.088-2.515-.631-.459h.78l.241-.742.24.742h.781l-.631.458.242.741-.631-.458-.631.458Zm4.391,0-.631-.458h.779l.242-.742.241.742h.78l-.63.458.24.741-.631-.458-.631.458Zm4.392,0-.631-.458h.779l.242-.742.241.742h.78l-.631.459.241.741-.631-.458-.631.458Zm3.3,2.516-.631-.458-.631.458.24-.741-.631-.459h.78l.241-.742.241.742h.78l-.631.459Zm.3-4.856-.631.459.241.742-.631-.459-.631.459.24-.742-.631-.459h.78l.241-.741.24.741Zm1.829-.555-.631-.458-.63.458.24-.741-.631-.458h.779l.241-.743.241.743h.78l-.631.458Zm-2.2-1.882-.631-.458-.631.458.241-.741-.631-.459h.78l.242-.742.241.742h.78l-.631.458Zm2.143-2.027-.631-.458-.63.458.24-.742-.63-.458h.779l.242-.742.241.742h.78l-.631.458Zm-.631-5.706.24.741h.78l-.631.459.241.742-.631-.459-.63.459.24-.742-.63-.459h.779Zm-1.955,2.624h.78l-.631.458.241.741-.631-.458-.631.458.241-.741-.631-.458h.781l.241-.742Zm-2.437-2.624.241.741h.78l-.631.459.241.742-.632-.459-.631.459.241-.742-.631-.459h.78Zm-1.955,2.624h.781l-.631.458.241.741-.631-.458-.63.458.241-.741-.631-.458h.78l.241-.742Zm-2.436-2.624.241.741h.781l-.631.459.241.742-.631-.459-.63.459.24-.742-.631-.459h.78Zm-1.955,2.624h.78l-.631.458.242.741-.631-.458-.63.458.24-.741-.631-.458h.78l.241-.742Zm-2.436-2.624.24.741h.781l-.631.459.241.742-.631-.459-.631.459.24-.742-.63-.459h.78Zm-1.954,2.624h.78l-.631.458.241.741-.631-.458-.631.458.241-.741-.631-.458h.78l.241-.742Zm-2.437-2.624.241.741h.78l-.631.459.241.742-.631-.459-.631.459.241-.742-.63-.459h.779Zm-2.2,1.882.24.742h.78l-.631.458.241.741-.631-.458-.631.458.241-.741-.632-.458h.781Zm-3.217,2.624h.78l.242-.742.241.742h.779l-.631.458.241.742-.631-.459-.631.459.241-.742Zm2.248,2.027h.78l.241-.742.241.742h.78l-.63.459.241.741-.631-.458-.631.458.241-.742Zm-.543,3.082-.631-.458-.631.458.241-.741-.631-.458h.779l.241-.743.241.743h.78l-.631.458Zm1.542-.187.241.741h.78l-.631.459.241.742-.631-.459-.631.459.241-.742-.631-.459h.78Zm-3.217,2.624h.78l.241-.742.241.742h.78l-.631.458.241.741-.631-.458-.63.458.241-.741Zm1.739,4.856-.631-.458-.63.458.24-.741-.631-.458h.78l.241-.741.241.741h.78l-.63.458Zm4.392,0-.632-.458-.63.458.24-.741-.631-.458h.78l.24-.741.241.741h.78l-.631.459Zm4.391,0-.631-.458-.631.458.241-.741-.631-.458h.78l.241-.741.241.741h.78l-.631.459Zm4.391,0-.631-.458-.631.458.241-.741-.631-.458h.78l.242-.741.24.741h.78l-.63.459Zm4.391,0-.631-.458-.631.458.241-.741-.631-.459h.779l.241-.741.241.741h.779l-.631.458Zm4.392,0-.631-.458-.63.458.24-.741-.631-.458h.78l.241-.741.241.741h.78l-.631.458Z" transform="translate(-1729.427 -1041.545)" fill="#213065"/>
      </g>
      <g id="Group_817" data-name="Group 817" transform="translate(1730.412 1042.308)">
        <g id="Group_767" data-name="Group 767" transform="translate(0.07)">
          <path id="Path_772" data-name="Path 772" d="M1733.807,1046.425l.631-.459.631.459-.241-.742.631-.459h-.78l-.24-.742-.241.742h-.663l-.047.051.562.408Z" transform="translate(-1733.487 -1044.483)" fill="#fff"/>
        </g>
        <g id="Group_768" data-name="Group 768" transform="translate(4.392 0)">
          <path id="Path_773" data-name="Path 773" d="M1750.511,1046.425l.631-.459.631.459-.242-.742.631-.459h-.78l-.241-.741-.241.741h-.779l.63.459Z" transform="translate(-1750.122 -1044.483)" fill="#fff"/>
        </g>
        <g id="Group_769" data-name="Group 769" transform="translate(8.783 0)">
          <path id="Path_774" data-name="Path 774" d="M1767.413,1046.425l.631-.459.631.459-.241-.742.631-.459h-.781l-.24-.741-.241.741h-.78l.631.459Z" transform="translate(-1767.022 -1044.483)" fill="#fff"/>
        </g>
        <g id="Group_770" data-name="Group 770" transform="translate(13.174 0)">
          <path id="Path_775" data-name="Path 775" d="M1784.315,1046.425l.631-.459.631.459-.241-.742.631-.459h-.781l-.241-.741-.241.741h-.78l.631.459Z" transform="translate(-1783.925 -1044.483)" fill="#fff"/>
        </g>
        <g id="Group_771" data-name="Group 771" transform="translate(17.565 0)">
          <path id="Path_776" data-name="Path 776" d="M1801.215,1046.425l.631-.459.631.459-.241-.741.631-.459h-.78l-.241-.741-.241.741h-.78l.631.459Z" transform="translate(-1800.825 -1044.483)" fill="#fff"/>
        </g>
        <g id="Group_772" data-name="Group 772" transform="translate(21.957 0)">
          <path id="Path_777" data-name="Path 777" d="M1818.121,1046.425l.63-.459.631.459-.241-.741.631-.459h-.78l-.241-.741-.242.741h-.779l.63.459Z" transform="translate(-1817.731 -1044.483)" fill="#fff"/>
        </g>
        <g id="Group_773" data-name="Group 773" transform="translate(2.195 1.882)">
          <path id="Path_778" data-name="Path 778" d="M1742.058,1053.669l.631-.458.631.458-.241-.741.631-.458h-.78l-.24-.742-.241.742h-.781l.632.458Z" transform="translate(-1741.667 -1051.728)" fill="#fff"/>
        </g>
        <g id="Group_774" data-name="Group 774" transform="translate(6.587 1.882)">
          <path id="Path_779" data-name="Path 779" d="M1758.961,1053.669l.631-.458.631.458-.241-.741.631-.458h-.78l-.241-.742-.241.742h-.78l.631.458Z" transform="translate(-1758.571 -1051.728)" fill="#fff"/>
        </g>
        <g id="Group_775" data-name="Group 775" transform="translate(10.978 1.882)">
          <path id="Path_780" data-name="Path 780" d="M1775.864,1053.669l.631-.458.631.458-.242-.742.631-.458h-.781l-.24-.742-.241.742h-.78l.631.458Z" transform="translate(-1775.474 -1051.728)" fill="#fff"/>
        </g>
        <g id="Group_776" data-name="Group 776" transform="translate(15.369 1.882)">
          <path id="Path_781" data-name="Path 781" d="M1792.766,1053.669l.63-.458.631.458-.241-.741.631-.458h-.78l-.241-.742-.241.742h-.78l.631.458Z" transform="translate(-1792.376 -1051.728)" fill="#fff"/>
        </g>
        <g id="Group_777" data-name="Group 777" transform="translate(19.76 1.882)">
          <path id="Path_782" data-name="Path 782" d="M1809.667,1053.669l.631-.458.631.458-.241-.742.631-.458h-.78l-.24-.742-.241.742h-.78l.631.458Z" transform="translate(-1809.276 -1051.728)" fill="#fff"/>
        </g>
        <g id="Group_778" data-name="Group 778" transform="translate(0 3.764)">
          <path id="Path_783" data-name="Path 783" d="M1733.608,1060.912l.631-.459.631.459-.242-.742.631-.458h-.779l-.241-.742-.242.742h-.779l.631.458Z" transform="translate(-1733.218 -1058.97)" fill="#fff"/>
        </g>
        <g id="Group_779" data-name="Group 779" transform="translate(4.392 3.764)">
          <path id="Path_784" data-name="Path 784" d="M1750.511,1060.912l.631-.459.631.459-.242-.742.631-.458h-.78l-.241-.742-.241.742h-.779l.63.458Z" transform="translate(-1750.122 -1058.97)" fill="#fff"/>
        </g>
        <g id="Group_780" data-name="Group 780" transform="translate(8.783 3.764)">
          <path id="Path_785" data-name="Path 785" d="M1767.413,1060.912l.631-.459.631.459-.241-.742.631-.458h-.78l-.241-.742-.241.742h-.78l.631.458Z" transform="translate(-1767.022 -1058.97)" fill="#fff"/>
        </g>
        <g id="Group_781" data-name="Group 781" transform="translate(13.174 3.764)">
          <path id="Path_786" data-name="Path 786" d="M1784.315,1060.912l.631-.459.631.459-.241-.742.631-.458h-.781l-.241-.742-.241.742h-.78l.631.458Z" transform="translate(-1783.925 -1058.97)" fill="#fff"/>
        </g>
        <g id="Group_782" data-name="Group 782" transform="translate(17.565 3.764)">
          <path id="Path_787" data-name="Path 787" d="M1801.215,1060.912l.631-.459.631.459-.241-.742.631-.458h-.78l-.241-.742-.241.742h-.78l.631.458Z" transform="translate(-1800.825 -1058.97)" fill="#fff"/>
        </g>
        <g id="Group_783" data-name="Group 783" transform="translate(21.957 3.764)">
          <path id="Path_788" data-name="Path 788" d="M1818.121,1060.912l.63-.459.631.459-.241-.742.631-.458h-.78l-.241-.742-.242.742h-.779l.63.458Z" transform="translate(-1817.731 -1058.97)" fill="#fff"/>
        </g>
        <g id="Group_784" data-name="Group 784" transform="translate(2.248 5.791)">
          <path id="Path_789" data-name="Path 789" d="M1743.134,1067.514l-.241-.742-.241.742h-.78l.631.458-.241.741.63-.458.631.458-.241-.741.631-.458Z" transform="translate(-1741.872 -1066.771)" fill="#fff"/>
        </g>
        <g id="Group_785" data-name="Group 785" transform="translate(6.64 5.791)">
          <path id="Path_790" data-name="Path 790" d="M1760.038,1067.514l-.24-.742-.242.742h-.779l.631.458-.24.741.631-.458.631.458-.241-.741.631-.458Z" transform="translate(-1758.776 -1066.771)" fill="#fff"/>
        </g>
        <g id="Group_786" data-name="Group 786" transform="translate(11.031 5.791)">
          <path id="Path_791" data-name="Path 791" d="M1776.939,1067.514l-.241-.742-.241.742h-.78l.631.458-.24.741.63-.458.631.458-.242-.741.632-.458Z" transform="translate(-1775.677 -1066.771)" fill="#fff"/>
        </g>
        <g id="Group_787" data-name="Group 787" transform="translate(15.422 5.791)">
          <path id="Path_792" data-name="Path 792" d="M1793.841,1067.514l-.24-.742-.24.742h-.78l.631.458-.241.741.631-.458.631.458-.241-.741.631-.458Z" transform="translate(-1792.579 -1066.771)" fill="#fff"/>
        </g>
        <g id="Group_788" data-name="Group 788" transform="translate(19.813 5.791)">
          <path id="Path_793" data-name="Path 793" d="M1810.742,1067.514l-.24-.742-.242.742h-.78l.631.458-.241.741.631-.458.631.458-.24-.742.631-.458Z" transform="translate(-1809.48 -1066.771)" fill="#fff"/>
        </g>
        <g id="Group_789" data-name="Group 789" transform="translate(0.053 7.673)">
          <path id="Path_794" data-name="Path 794" d="M1734.685,1074.759l-.241-.743-.242.743h-.779l.631.458-.241.741.631-.458.631.458-.241-.741.631-.458Z" transform="translate(-1733.423 -1074.017)" fill="#fff"/>
        </g>
        <g id="Group_790" data-name="Group 790" transform="translate(4.445 7.673)">
          <path id="Path_795" data-name="Path 795" d="M1751.587,1074.759l-.241-.743-.242.743h-.779l.63.458-.241.742.631-.458.631.458-.241-.741.631-.458Z" transform="translate(-1750.325 -1074.017)" fill="#fff"/>
        </g>
        <g id="Group_791" data-name="Group 791" transform="translate(8.835 7.673)">
          <path id="Path_796" data-name="Path 796" d="M1768.487,1074.759l-.241-.743-.241.743h-.779l.631.458-.241.741.631-.458.631.458-.241-.741.631-.458Z" transform="translate(-1767.226 -1074.017)" fill="#fff"/>
        </g>
        <g id="Group_792" data-name="Group 792" transform="translate(13.227 7.673)">
          <path id="Path_797" data-name="Path 797" d="M1785.39,1074.759l-.24-.743-.242.743h-.78l.631.458-.24.742.63-.458.631.458-.24-.741.63-.458Z" transform="translate(-1784.128 -1074.017)" fill="#fff"/>
        </g>
        <g id="Group_793" data-name="Group 793" transform="translate(17.617 7.673)">
          <path id="Path_798" data-name="Path 798" d="M1802.291,1074.759l-.241-.743-.242.743h-.78l.631.458-.24.741.631-.458.631.458-.241-.741.631-.458Z" transform="translate(-1801.028 -1074.017)" fill="#fff"/>
        </g>
        <g id="Group_794" data-name="Group 794" transform="translate(22.009 7.673)">
          <path id="Path_799" data-name="Path 799" d="M1819.195,1074.759l-.241-.743-.241.743h-.779l.631.458-.24.741.63-.458.631.458-.242-.741.631-.458Z" transform="translate(-1817.933 -1074.017)" fill="#fff"/>
        </g>
        <g id="Group_795" data-name="Group 795" transform="translate(2.226 9.428)">
          <path id="Path_800" data-name="Path 800" d="M1742.176,1082.714l.631-.459.631.459-.24-.742.631-.458h-.78l-.24-.742-.241.742h-.78l.631.459Z" transform="translate(-1741.786 -1080.772)" fill="#fff"/>
        </g>
        <g id="Group_796" data-name="Group 796" transform="translate(6.617 9.428)">
          <path id="Path_801" data-name="Path 801" d="M1759.078,1082.714l.631-.46.631.46-.241-.742.631-.458h-.78l-.242-.742-.24.742h-.779l.631.459Z" transform="translate(-1758.689 -1080.772)" fill="#fff"/>
        </g>
        <g id="Group_797" data-name="Group 797" transform="translate(11.009 9.428)">
          <path id="Path_802" data-name="Path 802" d="M1775.981,1082.714l.631-.459.631.459-.241-.742.631-.459h-.78l-.241-.742-.241.742h-.78l.63.459Z" transform="translate(-1775.591 -1080.772)" fill="#fff"/>
        </g>
        <g id="Group_798" data-name="Group 798" transform="translate(15.4 9.428)">
          <path id="Path_803" data-name="Path 803" d="M1792.883,1082.714l.631-.459.631.459-.241-.742.631-.459h-.78l-.24-.742-.242.742h-.779l.63.458Z" transform="translate(-1792.493 -1080.772)" fill="#fff"/>
        </g>
        <g id="Group_799" data-name="Group 799" transform="translate(19.791 9.428)">
          <path id="Path_804" data-name="Path 804" d="M1809.784,1082.714l.631-.459.631.459-.241-.742.631-.459h-.78l-.24-.742-.241.742h-.78l.631.458Z" transform="translate(-1809.394 -1080.772)" fill="#fff"/>
        </g>
        <g id="Group_800" data-name="Group 800" transform="translate(0.03 11.31)">
          <path id="Path_805" data-name="Path 805" d="M1733.725,1089.956l.63-.458.631.458-.242-.741.631-.458h-.78l-.241-.742-.241.742h-.78l.631.459Z" transform="translate(-1733.335 -1088.015)" fill="#fff"/>
        </g>
        <g id="Group_801" data-name="Group 801" transform="translate(4.422 11.31)">
          <path id="Path_806" data-name="Path 806" d="M1750.628,1089.956l.63-.458.632.458-.241-.741.631-.458h-.78l-.241-.742-.24.742h-.78l.631.458Z" transform="translate(-1750.238 -1088.015)" fill="#fff"/>
        </g>
        <g id="Group_802" data-name="Group 802" transform="translate(8.813 11.31)">
          <path id="Path_807" data-name="Path 807" d="M1767.529,1089.956l.631-.458.631.458-.242-.742.631-.458h-.781l-.24-.742-.241.742h-.78l.631.459Z" transform="translate(-1767.138 -1088.015)" fill="#fff"/>
        </g>
        <g id="Group_803" data-name="Group 803" transform="translate(13.204 11.31)">
          <path id="Path_808" data-name="Path 808" d="M1784.43,1089.956l.631-.458.631.458-.24-.741.631-.458h-.78l-.241-.742-.242.742h-.779l.631.458Z" transform="translate(-1784.04 -1088.015)" fill="#fff"/>
        </g>
        <g id="Group_804" data-name="Group 804" transform="translate(17.595 11.31)">
          <path id="Path_809" data-name="Path 809" d="M1801.333,1089.956l.631-.458.631.458-.241-.741.631-.459h-.781l-.241-.742-.241.742h-.779l.631.458Z" transform="translate(-1800.942 -1088.015)" fill="#fff"/>
        </g>
        <g id="Group_805" data-name="Group 805" transform="translate(21.987 11.31)">
          <path id="Path_810" data-name="Path 810" d="M1818.237,1089.956l.631-.458.63.458-.241-.741.631-.458h-.779l-.241-.742-.241.742h-.78l.63.458Z" transform="translate(-1817.847 -1088.015)" fill="#fff"/>
        </g>
        <g id="Group_806" data-name="Group 806" transform="translate(2.313 13.083)">
          <path id="Path_811" data-name="Path 811" d="M1743.383,1095.584l-.241-.742-.241.742h-.78l.631.459-.241.742.631-.458.631.458-.241-.742.631-.458Z" transform="translate(-1742.122 -1094.842)" fill="#fff"/>
        </g>
        <g id="Group_807" data-name="Group 807" transform="translate(6.704 13.083)">
          <path id="Path_812" data-name="Path 812" d="M1760.285,1095.584l-.241-.742-.241.742h-.78l.631.459-.241.742.631-.458.631.458-.241-.742.632-.459Z" transform="translate(-1759.022 -1094.842)" fill="#fff"/>
        </g>
        <g id="Group_808" data-name="Group 808" transform="translate(11.096 13.083)">
          <path id="Path_813" data-name="Path 813" d="M1777.189,1095.584l-.241-.742-.241.742h-.779l.631.458-.241.742.631-.458.631.458-.242-.742.632-.459Z" transform="translate(-1775.927 -1094.842)" fill="#fff"/>
        </g>
        <g id="Group_809" data-name="Group 809" transform="translate(15.487 13.083)">
          <path id="Path_814" data-name="Path 814" d="M1794.09,1095.584l-.241-.742-.242.742h-.78l.631.458-.241.742.631-.458.631.458-.242-.742.631-.459Z" transform="translate(-1792.827 -1094.842)" fill="#fff"/>
        </g>
        <g id="Group_810" data-name="Group 810" transform="translate(19.878 13.083)">
          <path id="Path_815" data-name="Path 815" d="M1810.991,1095.584l-.241-.742-.241.742h-.78l.631.459-.24.742.631-.458.631.458-.242-.742.631-.458Z" transform="translate(-1809.729 -1094.842)" fill="#fff"/>
        </g>
        <g id="Group_811" data-name="Group 811" transform="translate(0.118 14.966)">
          <path id="Path_816" data-name="Path 816" d="M1734.932,1102.831l-.241-.742-.241.742h-.78l.631.458-.241.741.63-.458.631.458-.241-.741.631-.458Z" transform="translate(-1733.671 -1102.089)" fill="#fff"/>
        </g>
        <g id="Group_812" data-name="Group 812" transform="translate(4.509 14.966)">
          <path id="Path_817" data-name="Path 817" d="M1751.834,1102.831l-.241-.742-.24.742h-.78l.631.458-.24.741.63-.458.631.458-.241-.741.631-.458Z" transform="translate(-1750.573 -1102.089)" fill="#fff"/>
        </g>
        <g id="Group_813" data-name="Group 813" transform="translate(8.9 14.966)">
          <path id="Path_818" data-name="Path 818" d="M1768.736,1102.831l-.241-.742-.241.742h-.78l.631.458-.241.741.631-.458.631.458-.242-.741.631-.458Z" transform="translate(-1767.474 -1102.089)" fill="#fff"/>
        </g>
        <g id="Group_814" data-name="Group 814" transform="translate(13.291 14.966)">
          <path id="Path_819" data-name="Path 819" d="M1785.638,1102.831l-.241-.742-.241.742h-.78l.631.458-.241.741.631-.458.631.458-.241-.741.631-.458Z" transform="translate(-1784.376 -1102.089)" fill="#fff"/>
        </g>
        <g id="Group_815" data-name="Group 815" transform="translate(17.683 14.966)">
          <path id="Path_820" data-name="Path 820" d="M1802.542,1102.831l-.241-.742-.241.742h-.779l.631.458-.241.741.631-.458.631.458-.241-.741.631-.458Z" transform="translate(-1801.28 -1102.089)" fill="#fff"/>
        </g>
        <g id="Group_816" data-name="Group 816" transform="translate(22.074 14.966)">
          <path id="Path_821" data-name="Path 821" d="M1820.223,1102.831h-.781l-.241-.742-.241.742h-.78l.631.458-.24.741.631-.458.631.458-.241-.741Z" transform="translate(-1818.181 -1102.089)" fill="#fff"/>
        </g>
      </g>
    </g>
  </g>
</svg>
