<svg xmlns="http://www.w3.org/2000/svg" width="46.268" height="21.843" viewBox="0 0 46.268 21.843">
  <g id="Group_6636" data-name="Group 6636" transform="translate(-5453.65 -1616.08)">
    <g id="Group_4" data-name="Group 4" transform="translate(5453.65 1616.08)">
      <path id="Path_6" data-name="Path 6" d="M5467.482,1628.685c-.177.161-.355.322-.529.486a3.9,3.9,0,0,0-1.243,2.107,3.944,3.944,0,0,0,.725,3.209,3.162,3.162,0,0,0,1.343,1.112c.065.027.132.051.213.081-.073.2-.138.4-.217.587a10.238,10.238,0,0,1-1.872,3.036,4.564,4.564,0,0,1-.5.459,2.111,2.111,0,0,1-2.014.448c-.375-.109-.746-.232-1.12-.348a4.354,4.354,0,0,0-1.18-.224,3.854,3.854,0,0,0-1.432.309,9.508,9.508,0,0,1-1.071.351,1.93,1.93,0,0,1-1.568-.362,4.655,4.655,0,0,1-1.188-1.22,12.481,12.481,0,0,1-1.836-3.837,8.912,8.912,0,0,1-.246-3.754,5.35,5.35,0,0,1,1.374-2.961,3.446,3.446,0,0,1,3-1.1,9.491,9.491,0,0,1,1.708.391c.234.068.474.119.71.179a1.868,1.868,0,0,0,1-.049c.46-.135.917-.289,1.377-.426a4.334,4.334,0,0,1,2.086-.125,3.949,3.949,0,0,1,2.242,1.356c.076.086.15.174.225.261A.246.246,0,0,1,5467.482,1628.685Z" transform="translate(-5453.651 -1623.054)" fill="#131309"/>
      <path id="Path_7" data-name="Path 7" d="M5476.5,1616.08a4.771,4.771,0,0,1,.025.577,4.12,4.12,0,0,1-1.172,2.628,3.121,3.121,0,0,1-1.1.8,3.84,3.84,0,0,1-1.149.206c-.006,0-.013-.006-.019-.01A3.987,3.987,0,0,1,5476.5,1616.08Z" transform="translate(-5466.11 -1616.08)" fill="#131309"/>
    </g>
    <g id="Group_5" data-name="Group 5" transform="translate(5472.363 1618.499)">
      <path id="Path_8" data-name="Path 8" d="M5505.775,1623.1a21.727,21.727,0,0,1,3.6-.281,5.975,5.975,0,0,1,4.079,1.208,3.909,3.909,0,0,1,1.274,3.043,4.281,4.281,0,0,1-1.123,3.108,6.027,6.027,0,0,1-4.446,1.6,6.454,6.454,0,0,1-1.511-.13v5.827h-1.877Zm1.877,7.014a6.29,6.29,0,0,0,1.554.151c2.266,0,3.647-1.1,3.647-3.108,0-1.92-1.36-2.849-3.432-2.849a7.9,7.9,0,0,0-1.77.151Z" transform="translate(-5505.775 -1622.819)" fill="#131309"/>
      <path id="Path_9" data-name="Path 9" d="M5537.8,1644.563l-.151-1.316h-.065a3.891,3.891,0,0,1-3.194,1.554,2.976,2.976,0,0,1-3.194-3c0-2.525,2.245-3.906,6.28-3.885v-.216a2.154,2.154,0,0,0-2.374-2.417,5.207,5.207,0,0,0-2.72.777l-.431-1.252a6.48,6.48,0,0,1,3.431-.928c3.195,0,3.971,2.18,3.971,4.273v3.906a14.611,14.611,0,0,0,.173,2.5Zm-.28-5.331c-2.072-.043-4.424.324-4.424,2.353a1.681,1.681,0,0,0,1.791,1.813,2.6,2.6,0,0,0,2.525-1.749,1.96,1.96,0,0,0,.108-.6Z" transform="translate(-5522.073 -1629.909)" fill="#131309"/>
      <path id="Path_10" data-name="Path 10" d="M5557.252,1634.541l2.287,6.172c.237.69.5,1.511.669,2.136h.043c.194-.626.41-1.424.668-2.18l2.072-6.129H5565l-2.849,7.446c-1.359,3.582-2.288,5.417-3.583,6.539a5.145,5.145,0,0,1-2.331,1.23l-.475-1.6a5.028,5.028,0,0,0,1.662-.928,5.76,5.76,0,0,0,1.6-2.115,1.349,1.349,0,0,0,.151-.453,1.644,1.644,0,0,0-.13-.5l-3.863-9.625Z" transform="translate(-5537.444 -1630.333)" fill="#131309"/>
    </g>
  </g>
</svg>
