<svg xmlns="http://www.w3.org/2000/svg" width="41.703" height="24.96" viewBox="0 0 41.703 24.96">
  <g id="Group_479" data-name="Group 479" transform="translate(0 0)">
    <path id="Path_152" data-name="Path 152" d="M428.377,170.3l.643-.017.636-.046.623-.079.618-.11.6-.139.594-.168.581-.2.569-.223.555-.252.539-.274.522-.3.51-.324.489-.349.471-.371.455-.392.434-.417.417-.434.392-.455.371-.471.349-.488.324-.509.3-.523.274-.539.253-.555.223-.569.2-.581.169-.593.138-.6.109-.619.08-.623.047-.636.016-.644-.016-.64-.047-.632-.08-.623-.109-.611-.138-.6-.169-.59-.2-.581-.223-.564-.253-.551-.274-.539-.3-.518-.324-.509-.349-.489-.371-.467-.392-.454-.417-.434-.434-.413-.455-.391-.471-.371-.489-.349-.51-.324-.522-.3-.539-.273-.555-.253-.569-.223-.581-.2-.594-.168-.6-.139-.618-.109-.623-.08-.636-.047-.643-.017-.641.017-.636.047-.622.08-.615.109-.6.139-.593.168-.577.2-.569.223-.552.253-.534.273-.522.3-.505.324-.488.349-.472.371-.45.391-.434.413-.412.434-.392.454-.37.467-.345.489-.324.509-.3.518-.278.539-.249.551-.223.564-.193.581-.169.59-.139.6-.109.611-.08.623-.047.632-.017.64.017.644.047.636.08.623.109.619.139.6.169.593.193.581.223.569.249.555.278.539.3.523.324.509.345.488.37.471.392.455.412.434.434.417.45.392.472.371.488.349.505.324.522.3.534.274.552.252.569.223.577.2.593.168.6.139.615.11.622.079.636.046.641.017Z" transform="translate(-399.176 -145.335)" fill="#fbb231" fill-rule="evenodd"/>
    <path id="Path_153" data-name="Path 153" d="M398.235,170.3l.639-.017.636-.046.624-.079.615-.11.6-.139.593-.168.577-.2.568-.223.551-.252.535-.274.522-.3.5-.324.489-.349.471-.371.45-.392.434-.417.413-.434.392-.455.37-.471.345-.488.325-.509.3-.523.278-.539.248-.555.224-.569.193-.581.168-.593.139-.6.109-.619.08-.623.046-.636.017-.644-.017-.64-.046-.632-.08-.623-.109-.611-.139-.6-.168-.59-.193-.581-.224-.564-.248-.551-.278-.539-.3-.518-.325-.509-.345-.489-.37-.467-.392-.454-.413-.434-.434-.413-.45-.391-.471-.371-.489-.349-.5-.324-.522-.3-.535-.273-.551-.253-.568-.223-.577-.2-.593-.168-.6-.139-.615-.109-.624-.08-.636-.047-.639-.017-.645.017-.635.047-.623.08-.619.109-.6.139-.594.168-.581.2-.568.223-.556.253-.539.273-.522.3-.51.324-.489.349-.471.371-.455.391-.433.413-.417.434-.392.454-.37.467-.35.489-.324.509-.3.518-.273.539-.253.551-.223.564-.2.581-.168.59-.139.6-.11.611-.08.623-.046.632-.017.64.017.644.046.636.08.623.11.619.139.6.168.593.2.581.223.569.253.555.273.539.3.523.324.509.35.488.37.471.392.455.417.434.433.417.455.392.471.371.489.349.51.324.522.3.539.274.556.252.568.223.581.2.594.168.6.139.619.11.623.079.635.046.645.017Z" transform="translate(-385.731 -145.335)" fill="#ec1c2e" fill-rule="evenodd"/>
    <path id="Path_154" data-name="Path 154" d="M420.695,153.422h6.63v-.678h-6.058l-.573.678Z" transform="translate(-401.303 -148.635)" fill="#fbb231" fill-rule="evenodd"/>
    <path id="Path_155" data-name="Path 155" d="M418.9,156.139h7.624v-.678H419.3l-.4.678Z" transform="translate(-400.505 -149.845)" fill="#fbb231" fill-rule="evenodd"/>
    <path id="Path_156" data-name="Path 156" d="M417.567,158.849h8.365v-.678h-8.07l-.295.678Z" transform="translate(-399.911 -151.052)" fill="#fbb231" fill-rule="evenodd"/>
    <path id="Path_157" data-name="Path 157" d="M416.648,161.567h8.875v-.678h-8.664l-.21.678Z" transform="translate(-399.501 -152.263)" fill="#fbb231" fill-rule="evenodd"/>
    <path id="Path_158" data-name="Path 158" d="M417.011,174.7h8.6v-.678H416.8l.211.678Z" transform="translate(-399.569 -158.112)" fill="#fbb231" fill-rule="evenodd"/>
    <path id="Path_159" data-name="Path 159" d="M418.072,177.417h7.965v-.678h-8.281l.316.678Z" transform="translate(-399.995 -159.322)" fill="#fbb231" fill-rule="evenodd"/>
    <path id="Path_160" data-name="Path 160" d="M419.593,180.127h7.073v-.678h-7.5l.424.678Z" transform="translate(-400.624 -160.529)" fill="#fbb231" fill-rule="evenodd"/>
    <path id="Path_161" data-name="Path 161" d="M421.675,182.84h5.843v-.682h-6.437l.593.682Z" transform="translate(-401.476 -161.736)" fill="#fbb231" fill-rule="evenodd"/>
    <path id="Path_162" data-name="Path 162" d="M416.11,164.277h9.173V163.6H416.24l-.13.678Z" transform="translate(-399.261 -153.47)" fill="#fbb231" fill-rule="evenodd"/>
    <path id="Path_163" data-name="Path 163" d="M426.19,171.989h3.5v-.678h-3.372l-.127.678Z" transform="translate(-403.751 -156.905)" fill="#fbb231" fill-rule="evenodd"/>
    <path id="Path_164" data-name="Path 164" d="M426.691,169.276h3.22v-.682h-3.094l-.126.682Z" transform="translate(-403.974 -155.694)" fill="#fbb231" fill-rule="evenodd"/>
    <path id="Path_165" data-name="Path 165" d="M415.692,168.594h.91v.682h-.867l-.043-.682Z" transform="translate(-399.075 -155.694)" fill="#fbb231" fill-rule="evenodd"/>
    <path id="Path_166" data-name="Path 166" d="M409.792,166.261l-.058,0-.059-.008-.055-.008-.054-.009-.051-.008-.054-.009-.054-.008-.06-.009-.058-.008-.067,0-.076,0-.08,0h-.089l-.1,0-.11.009-.122.008-.084.013-.08.013-.072.025-.063.025-.059.03-.054.034-.043.043-.038.037-.025.046-.021.046-.009.05v.051l.012.055.017.054.033.055.043.055.084.08.1.063.117.054.126.046.135.043.139.046.139.051.135.054.127.071.118.088.105.106.089.13.067.16.042.19.016.228-.016.265-.029.2-.051.172-.068.16-.084.139-.1.123-.11.1-.118.093-.13.08-.136.063-.139.054-.143.042-.147.034-.143.026-.138.012-.139.009-.131,0h-.182l-.168,0h-.147l-.139,0-.126,0-.113-.009-.1-.008-.1-.012-.089-.009-.08-.017-.08-.013-.071-.02-.072-.017-.067-.026-.068-.025-.072-.025.189-.93.038.008.046.013.059.016.072.018.075.017.084.017.093.021.1.017.106.017.11.017.113.012.118.013.121,0,.123,0h.121l.122,0,.122-.025.1-.034.075-.046.059-.059.042-.059.034-.068.021-.067.016-.063.009-.122-.038-.105-.072-.084-.1-.071-.126-.063-.147-.063-.164-.059-.164-.067-.168-.076-.16-.089-.147-.109-.135-.131-.105-.16-.076-.19-.038-.227,0-.269.021-.164.03-.156.042-.143.05-.135.067-.126.076-.11.089-.106.105-.092.123-.08.134-.068.151-.063.169-.046.19-.038.206-.029.227-.017.249,0h.155l.143,0,.131,0,.118,0,.105.008.1.008.084.008.076.009.072.008.059.013.054.009.051.008.042.008.038,0,.038.008.034,0-.215.951Z" transform="translate(-394.873 -154.183)" fill="#fff" fill-rule="evenodd"/>
    <path id="Path_167" data-name="Path 167" d="M409.792,166.261h0l-.058,0-.059-.008-.055-.008-.054-.009-.051-.008-.054-.009-.054-.008-.06-.009-.058-.008-.067,0-.076,0-.08,0h-.089l-.1,0-.11.009-.122.008h0l-.084.013-.08.013-.072.025-.063.025-.059.03-.054.034-.043.043-.038.037-.025.046-.021.046-.009.05v.051l.012.055.017.054.033.055.043.055h0l.084.08.1.063.117.054.126.046.135.043.139.046.139.051.135.054.127.071.118.088.105.106.089.13.067.16.042.19.016.228-.016.265h0l-.029.2-.051.172-.068.16-.084.139-.1.123-.11.1-.118.093-.13.08-.136.063-.139.054-.143.042-.147.034-.143.026-.138.012-.139.009-.131,0h-.182l-.168,0h-.147l-.139,0-.126,0-.113-.009-.1-.008-.1-.012-.089-.009-.08-.017-.08-.013-.071-.02-.072-.017-.067-.026-.068-.025-.072-.025.189-.93h0l.038.008.046.013.059.016.072.018.075.017.084.017.093.021.1.017.106.017.11.017.113.012.118.013.121,0,.123,0h.121l.122,0h0l.122-.025.1-.034.075-.046.059-.059.042-.059.034-.068.021-.067.016-.063h0l.009-.122-.038-.105-.072-.084-.1-.071-.126-.063-.147-.063-.164-.059-.164-.067-.168-.076-.16-.089-.147-.109-.135-.131-.105-.16-.076-.19-.038-.227,0-.269h0l.021-.164.03-.156.042-.143.05-.135.067-.126.076-.11.089-.106.105-.092.123-.08.134-.068.151-.063.169-.046.19-.038.206-.029.227-.017.249,0h.155l.143,0,.131,0,.118,0,.105.008.1.008.084.008.076.009.072.008.059.013.054.009.051.008.042.008.038,0,.038.008.034,0-.215.951" transform="translate(-394.873 -154.183)" fill="none" stroke="#fff" stroke-miterlimit="2.613" stroke-width="0.216"/>
    <path id="Path_168" data-name="Path 168" d="M413.766,163.524h1.167l-.173,1.019h.7l-.152.951-.741-.021-.4,2.349,0,.085.021.072.043.055.055.046.076.03.084.025.092.016.1.009.092,0,.084-.008.076-.013.067-.017.055-.017.038-.012.025-.009.008,0-.147.783-.03.021-.029.017-.03.017-.029.016-.03.013-.034.013-.038.012-.038.013-.042.012-.043.009-.05.008-.05.009-.055.009-.064.008-.068.008-.072.008h-.32l-.168-.013-.147-.017-.134-.025-.114-.03-.1-.038-.08-.041-.071-.051-.055-.055-.042-.059-.03-.071-.02-.072-.013-.079,0-.089v-.092l.012-.1.013-.106.8-4.593Z" transform="translate(-397.848 -153.436)" fill="#fff" fill-rule="evenodd"/>
    <path id="Path_169" data-name="Path 169" d="M413.766,163.524h1.167l-.173,1.019h.7l-.152.951-.741-.021-.4,2.349h0l0,.085.021.072.043.055.055.046.076.03.084.025.092.016.1.009h0l.092,0,.084-.008.076-.013.067-.017.055-.017.038-.012.025-.009.008,0-.147.783h0l-.03.021-.029.017-.03.017-.029.016-.03.013-.034.013-.038.012-.038.013-.042.012-.043.009-.05.008-.05.009-.055.009-.064.008-.068.008-.072.008h-.32l-.168-.013-.147-.017-.134-.025-.114-.03-.1-.038-.08-.041-.071-.051-.055-.055-.042-.059-.03-.071-.02-.072-.013-.079,0-.089v-.092l.012-.1.013-.106.8-4.593" transform="translate(-397.848 -153.436)" fill="none" stroke="#fff" stroke-miterlimit="2.613" stroke-width="0.216"/>
    <path id="Path_170" data-name="Path 170" d="M418.182,167.828h0l-.013.071,0,.076.008.08.017.08.03.08.034.077.046.079.05.071.059.072.063.064.068.063.075.05.076.047.084.037.084.029.085.017h0l.109.017.106.013.11.012.109.009.109,0h.114l.109,0,.114-.009.113-.017.114-.021.118-.025.114-.038.119-.046.121-.051.118-.067.122-.072-.168,1.036h0l-.068.033-.067.034-.068.025-.063.026-.063.021-.068.021-.067.016-.072.013-.076.013-.084.009-.088.008-.1.008-.11,0h-.113l-.131,0h-.139l-.206,0-.21-.021-.211-.03-.21-.051-.206-.063-.2-.081-.19-.1-.177-.122-.164-.143-.143-.172-.122-.194-.1-.223-.071-.248-.046-.282-.013-.311.021-.345h0l.017-.135.025-.156.034-.164.046-.178.064-.18.075-.181.1-.185.118-.177.134-.169.164-.16.186-.143.21-.126.244-.106.274-.076.3-.05.342-.018h0l.164,0,.173.017.173.029.173.042.168.064.165.076.152.1.139.118.126.144.106.169.084.193.059.223.034.252,0,.286-.03.32-.064.354-.021.257h-3.069l.193-.83h1.844l.009-.1,0-.1-.009-.093-.016-.084-.03-.08-.029-.072-.043-.063-.042-.059-.05-.05-.055-.042-.063-.038-.063-.034-.067-.025-.067-.017-.072-.013-.076-.009h0l-.08,0-.076.013-.072.017-.071.025-.072.034-.062.038-.064.046-.054.05-.055.059-.051.063-.046.068-.038.072-.038.076-.029.084-.025.084-.017.088-.168.871" transform="translate(-399.637 -154.183)" fill="none" stroke="#fff" stroke-miterlimit="2.613" stroke-width="0.216"/>
    <path id="Path_171" data-name="Path 171" d="M433.823,164.642l-.054-.029-.054-.026-.06-.03-.063-.03-.064-.025-.07-.025-.072-.025-.075-.025-.08-.021-.081-.017-.087-.017-.088-.013-.1-.009-.1-.008h-.312l-.11.008-.114.013-.117.021-.118.034-.117.047-.118.059-.118.075-.113.093-.11.109-.105.135-.1.156-.093.185-.088.21-.08.237-.067.269-.027.151-.016.147-.009.148,0,.144.012.143.029.135.038.126.046.126.063.114.075.109.089.1.1.089.113.076.13.063.143.055.16.038.055.012.064.013.076.009.084.008.092.008h.2l.106-.008.109-.013.11-.021.105-.029.105-.033.105-.047.1-.054.088-.067.084-.076-.189,1.124-.026.021-.025.025-.034.03-.038.024-.046.034-.059.03-.068.03-.075.025-.1.03-.11.021-.126.017-.148.017-.164.008-.19,0-.214,0-.236-.012-.194-.021-.194-.042-.193-.063-.194-.084-.186-.1-.177-.127-.168-.147-.156-.168-.139-.19-.117-.21-.1-.236-.075-.257-.051-.282-.017-.3.009-.328.046-.35.034-.172.037-.168.043-.164.043-.156.045-.148.055-.147.055-.139.059-.131.064-.131.063-.122.071-.118.075-.109.076-.106.084-.1.084-.093.089-.088.1-.085.1-.08.1-.072.105-.067.113-.063.113-.054.118-.051.122-.047.131-.042.129-.034.135-.03.144-.025.142-.022.152-.017.152-.008.16-.005.136.005.129.008.126.013.126.017.118.016.113.025.109.021.1.025.1.025.085.025.08.026.067.025.059.021.05.017.038.017.026.009-.212,1.166Z" transform="translate(-405.238 -153.284)" fill="#fff" fill-rule="evenodd"/>
    <path id="Path_172" data-name="Path 172" d="M433.823,164.642h0l-.054-.029-.054-.026-.06-.03-.063-.03-.064-.025-.07-.025-.072-.025-.075-.025-.08-.021-.081-.017-.087-.017-.088-.013-.1-.009-.1-.008h-.312l-.11.008-.114.013-.117.021-.118.034-.117.047-.118.059-.118.075-.113.093-.11.109-.105.135-.1.156-.093.185-.088.21-.08.237-.067.269h0l-.027.151-.016.147-.009.148,0,.144.012.143.029.135.038.126.046.126.063.114.075.109.089.1.1.089.113.076.13.063.143.055.16.038h0l.055.012.064.013.076.009.084.008.092.008h.2l.106-.008.109-.013.11-.021.105-.029.105-.033.105-.047.1-.054.088-.067.084-.076-.189,1.124h0l-.026.021-.025.025-.034.03-.038.024-.046.034-.059.03-.068.03-.075.025-.1.03-.11.021-.126.017-.148.017-.164.008-.19,0-.214,0-.236-.012h0l-.194-.021-.194-.042-.193-.063-.194-.084-.186-.1-.177-.127-.168-.147-.156-.168-.139-.19-.117-.21-.1-.236-.075-.257-.051-.282-.017-.3.009-.328.046-.35h0l.034-.172.037-.168.043-.164.043-.156.045-.148.055-.147.055-.139.059-.131.064-.131.063-.122.071-.118.075-.109.076-.106.084-.1.084-.093.089-.088.1-.085.1-.08.1-.072.105-.067.113-.063.113-.054.118-.051.122-.047.131-.042.129-.034.135-.03.144-.025.142-.022.152-.017.152-.008.16-.005h0l.136.005.129.008.126.013.126.017.118.016.113.025.109.021.1.025.1.025.085.025.08.026.067.025.059.021.05.017.038.017.026.009-.212,1.166" transform="translate(-405.238 -153.284)" fill="none" stroke="#fff" stroke-miterlimit="2.613" stroke-width="0.216"/>
    <path id="Path_173" data-name="Path 173" d="M452.864,169.068H451.7l.084-.467v-.042l-.068.085-.072.075-.071.067-.076.06-.076.055-.076.045-.076.038-.08.038-.08.03-.08.021-.08.021-.084.012-.083.013-.08.008-.084,0h-.084l-.219-.017-.2-.046-.185-.071-.169-.1-.151-.123-.135-.142-.118-.156-.1-.176-.083-.19-.068-.2-.046-.206-.034-.215-.012-.215,0-.219.021-.215.038-.214.063-.249.076-.235.089-.215.1-.2.109-.19.127-.169.13-.151.139-.139.147-.122.156-.105.16-.093.16-.072.168-.059.168-.037.168-.025.173-.008.123,0,.118.013.11.021.1.03.1.034.085.037.084.047.076.046.067.05.063.056.055.055.051.055.042.055.038.055.034.051.025.05h0l.3-1.655h1.144l-.952,5.506Z" transform="translate(-413.914 -153.453)" fill="#fff" fill-rule="evenodd"/>
    <path id="Path_174" data-name="Path 174" d="M452.864,169.068H451.7l.084-.467v-.042h0l-.068.085-.072.075-.071.067-.076.06-.076.055-.076.045-.076.038-.08.038-.08.03-.08.021-.08.021-.084.012-.083.013-.08.008-.084,0h-.084l-.219-.017-.2-.046-.185-.071-.169-.1-.151-.123-.135-.142-.118-.156-.1-.176-.083-.19-.068-.2-.046-.206-.034-.215-.012-.215,0-.219.021-.215.038-.214h0l.063-.249.076-.235.089-.215.1-.2.109-.19.127-.169.13-.151.139-.139.147-.122.156-.105.16-.093.16-.072.168-.059.168-.037.168-.025.173-.008h0l.123,0,.118.013.11.021.1.03.1.034.085.037.084.047.076.046.067.05.063.056.055.055.051.055.042.055.038.055.034.051.025.05h0l.3-1.655h1.144l-.952,5.506" transform="translate(-413.914 -153.453)" fill="none" stroke="#fff" stroke-miterlimit="2.613" stroke-width="0.216"/>
    <path id="Path_175" data-name="Path 175" d="M452.045,169.665l.118-.008.109-.025.1-.03.1-.046.088-.05.084-.064.08-.071.072-.077.063-.084.059-.093.054-.1.047-.1.042-.106.034-.109.029-.114.021-.113.021-.118.013-.122v-.115l0-.117-.013-.109-.017-.106-.029-.1-.034-.1-.042-.084-.051-.08-.054-.068-.064-.059-.072-.05-.076-.034-.08-.021-.088-.009-.115.009-.105.017-.1.034-.1.042-.084.055-.084.067-.071.072-.072.08-.063.092-.059.1-.055.1-.046.109-.042.113-.033.115-.034.121-.025.122-.022.186.009.2.029.206.055.2.084.173.109.139.139.093.168.034Z" transform="translate(-415.002 -155.069)" fill="#fbb231" fill-rule="evenodd"/>
    <path id="Path_176" data-name="Path 176" d="M402.828,168.89l-.169.935H401.6l.03-.172.022-.156.016-.118.017-.063-.059.067-.068.068-.08.063-.089.059-.1.059-.105.05-.11.051-.113.042-.123.038-.121.03-.123.025-.126.017-.122.009-.122,0-.118-.013-.114-.017-.147-.038-.135-.042-.118-.055-.105-.063-.092-.067-.084-.076-.068-.08-.059-.084-.05-.089-.043-.093-.033-.092L399.03,169l-.017-.1-.013-.1-.008-.093v-.092l.012-.164.026-.155.042-.147.055-.143.067-.135.076-.122.088-.117.1-.106.106-.1.118-.089.122-.08.126-.068.135-.058.139-.047.143-.038.148-.025h.008l.021,0,.03,0,.046,0,.051-.008.059,0,.063-.008.072-.008.071-.008.072-.008.076,0,.067-.008.068,0,.062,0,.06,0h.143l.1,0,.092,0h.093l.076,0,.059,0,.041,0h.013l.009-.029.025-.076.021-.089.009-.08-.017-.092-.038-.085-.051-.075-.068-.063-.08-.054-.088-.039-.1-.025-.109-.008-.118,0-.127,0h-.13l-.134,0-.139.009-.135.012-.134.013-.13.017-.127.017-.122.021-.109.021-.1.021-.093.026-.076.025-.058.03-.047.025.3-1.014.093-.038.092-.034.1-.029.1-.022.1-.021.109-.016.109-.017.114-.009.118-.008.122,0,.126,0h.4l.148,0,.148,0,.117.008.127.021.13.03.135.038.131.051.126.059.126.072.119.08.1.093.094.1.085.113.062.126.043.135.025.143v.16l-.025.168-.425,2.223Z" transform="translate(-391.637 -154.21)" fill="#fff" fill-rule="evenodd"/>
    <path id="Path_177" data-name="Path 177" d="M402.828,168.89l-.169.935H401.6l.03-.172.022-.156.016-.118.017-.063h0l-.059.067-.068.068-.08.063-.089.059-.1.059-.105.05-.11.051-.113.042-.123.038-.121.03-.123.025-.126.017-.122.009-.122,0-.118-.013-.114-.017h0l-.147-.038-.135-.042-.118-.055-.105-.063-.092-.067-.084-.076-.068-.08-.059-.084-.05-.089-.043-.093-.033-.092L399.03,169l-.017-.1-.013-.1-.008-.093v-.092h0l.012-.164.026-.155.042-.147.055-.143.067-.135.076-.122.088-.117.1-.106.106-.1.118-.089.122-.08.126-.068.135-.058.139-.047.143-.038.148-.025h.008l.021,0,.03,0,.046,0,.051-.008.059,0,.063-.008.072-.008.071-.008.072-.008.076,0,.067-.008.068,0,.062,0,.06,0h.143l.1,0,.092,0h.093l.076,0,.059,0,.041,0h.013l.009-.029.025-.076.021-.089.009-.08h0l-.017-.092-.038-.085-.051-.075-.068-.063-.08-.054-.088-.039-.1-.025-.109-.008h0l-.118,0-.127,0h-.13l-.134,0-.139.009-.135.012-.134.013-.13.017-.127.017-.122.021-.109.021-.1.021-.093.026-.076.025-.058.03-.047.025.3-1.014h0l.093-.038.092-.034.1-.029.1-.022.1-.021.109-.016.109-.017.114-.009.118-.008.122,0,.126,0h.4l.148,0,.148,0h0l.117.008.127.021.13.03.135.038.131.051.126.059.126.072.119.08.1.093.094.1.085.113.062.126.043.135.025.143v.16l-.025.168-.425,2.223" transform="translate(-391.637 -154.21)" fill="none" stroke="#fff" stroke-miterlimit="2.613" stroke-width="0.216"/>
    <path id="Path_178" data-name="Path 178" d="M402.865,169.762l0-.021-.017-.021-.025-.013-.042-.008-.047-.008-.054,0h-.127l-.067,0-.071.008-.068.008-.068.009-.063.008-.059.012-.05.013-.047.012-.029.008-.034.013-.046.017-.047.021-.054.025-.055.03-.059.029-.055.034-.059.042-.055.042-.051.051-.046.051-.042.054-.029.06-.025.067-.013.067,0,.143.02.113.043.085.055.063.063.042.072.025.067.013.067,0,.126,0,.114-.013.109-.017.1-.025.083-.03.08-.037.071-.038.064-.046.055-.042.05-.05.042-.046.034-.051.029-.051.027-.05.021-.047.012-.046.034-.122.029-.139.025-.134.021-.11Z" transform="translate(-392.689 -156.181)" fill="#ec1c2e" fill-rule="evenodd"/>
    <path id="Path_179" data-name="Path 179" d="M389.016,169.051h-1.144l.956-5.527h1.991l.19,3.279,1.377-3.279h2.079l-.977,5.527h-1.145l.724-4.13h-.046l-1.714,4.13h-1.292l-.009-.172-.03-.459-.038-.652-.043-.75-.042-.753-.038-.66-.029-.48-.009-.2h-.063l-.7,4.13Z" transform="translate(-386.685 -153.436)" fill="#fff" fill-rule="evenodd"/>
    <path id="Path_180" data-name="Path 180" d="M389.016,169.051h-1.144l.956-5.527h1.991l.19,3.279,1.377-3.279h2.079l-.977,5.527h-1.145l.724-4.13h-.046l-1.714,4.13h-1.292l-.009-.172-.03-.459-.038-.652-.043-.75-.042-.753-.038-.66-.029-.48-.009-.2h-.063l-.7,4.13" transform="translate(-386.685 -153.436)" fill="none" stroke="#fff" stroke-miterlimit="2.613" stroke-width="0.216"/>
    <path id="Path_181" data-name="Path 181" d="M440.518,168.89l-.173.935h-1.057l.008-.172,0-.151v-.113l.008-.05-.054.063-.064.063-.075.059-.085.06-.088.054-.1.05-.106.051-.105.042-.114.033-.118.034-.117.022-.118.017-.123.009-.117,0-.114-.013-.114-.017-.151-.038-.134-.042-.119-.055-.11-.063-.092-.067-.08-.076-.067-.08-.058-.084-.051-.089-.038-.093-.034-.092-.021-.093-.018-.1-.012-.1-.009-.093v-.092l.009-.164.025-.155.038-.147.055-.143.063-.135.08-.122.088-.117.1-.106.11-.1.113-.089.122-.08.131-.068.13-.058.139-.047.139-.038.143-.025h.009l.02,0,.03,0,.042,0,.055-.008.058,0,.064-.008.067-.008.072-.008.076-.008.071,0,.071-.008.067,0,.059,0,.059,0h.147l.1,0,.1,0h.093l.08,0,.067,0,.038,0h.017l.009-.029.012-.076.012-.089.008-.08-.016-.092-.033-.085-.055-.075-.064-.063-.075-.054-.088-.039-.093-.025-.1-.008-.118,0-.126,0h-.131l-.135,0-.138.009-.135.012-.135.013-.131.017-.126.017-.121.021-.11.021-.1.021-.093.026-.075.025-.06.03-.046.025.295-1.014.092-.038.1-.034.1-.029.1-.022.106-.021.106-.016.109-.017.115-.009.117-.008.122,0,.122,0h.4l.143,0,.143,0,.118.008.126.021.13.03.135.038.131.051.13.059.126.072.118.08.106.093.1.1.084.113.064.126.046.135.03.143v.16l-.021.168-.441,2.223Z" transform="translate(-408.433 -154.21)" fill="#fff" fill-rule="evenodd"/>
    <path id="Path_182" data-name="Path 182" d="M443.249,172.766l.025-.025.173-.935-.051-.008-.173.935.026-.026v.059l.02,0,0-.021-.025.025Z" transform="translate(-411.338 -157.121)" fill="#fff" fill-rule="evenodd"/>
    <path id="Path_183" data-name="Path 183" d="M441.316,173.466l.025.03H442.4v-.059h-1.057l.025.029h-.051l0,.03h.029l-.025-.03Z" transform="translate(-410.486 -157.851)" fill="#fff" fill-rule="evenodd"/>
    <path id="Path_184" data-name="Path 184" d="M441.386,172.612l-.038-.033-.017.068,0,.113v.151l-.008.173h.051l.008-.173.009-.151,0-.113v-.035l-.038-.033.042.033Z" transform="translate(-410.489 -157.469)" fill="#fff" fill-rule="evenodd"/>
    <path id="Path_185" data-name="Path 185" d="M438.487,173.152h0l.118.017.114.012.117,0,.123-.009.122-.017.118-.021.118-.033.117-.034.106-.042.109-.05.1-.05.088-.059.089-.06.075-.058.068-.068.055-.064-.042-.033-.055.063-.059.059-.076.059-.08.059-.089.05-.1.051-.1.05-.105.042-.109.034-.118.034-.118.021-.113.016-.123.009-.117,0-.114-.013-.109-.016h0l-.009.05Z" transform="translate(-409.228 -157.469)" fill="#fff" fill-rule="evenodd"/>
    <path id="Path_186" data-name="Path 186" d="M436.65,171.311h0l0,.092.009.093.013.1.017.1.021.093.034.1.038.1.055.089.059.089.068.08.084.08.1.067.109.068.123.054.138.043.152.038.009-.05-.152-.038-.13-.042-.114-.054-.11-.06-.088-.067-.076-.072-.067-.08-.059-.08-.046-.088-.038-.089-.034-.088-.021-.093-.017-.1-.013-.093-.009-.093,0-.092h-.059Z" transform="translate(-408.41 -156.905)" fill="#fff" fill-rule="evenodd"/>
    <path id="Path_187" data-name="Path 187" d="M438.161,168.4h0l-.147.025-.143.038-.139.046-.134.059-.131.067-.126.084-.114.089-.109.1-.1.105-.089.118-.084.126-.063.139-.054.143-.038.151-.025.16-.012.164h.059l0-.164.025-.151.038-.143.055-.143.063-.131.076-.118.089-.118.092-.1.109-.093.114-.089.117-.075.132-.068.125-.058.139-.046.135-.038.139-.025h0V168.4Z" transform="translate(-408.41 -155.607)" fill="#fff" fill-rule="evenodd"/>
    <path id="Path_188" data-name="Path 188" d="M440.242,168.237H440.2l-.059.009-.059,0-.067,0-.071.008-.071,0-.076.008-.072.008-.067.009-.064.008-.058,0-.055.009-.042,0-.034,0-.017,0h-.009v.051h.009l.025,0,.025,0,.042,0,.055-.008.058,0,.064-.008.067-.009.072-.008.076-.008.071,0,.071-.009.067,0,.059,0h.105v-.059Z" transform="translate(-409.623 -155.535)" fill="#fff" fill-rule="evenodd"/>
    <path id="Path_189" data-name="Path 189" d="M441.507,168.283l.025-.021h-.017l-.038,0-.067,0-.08-.008h-.189l-.1-.009h-.1v.059h.2l.1.008h.173l.067,0,.038,0h.017l.025-.021-.025.021.021,0,0-.025-.051-.009Z" transform="translate(-410.32 -155.535)" fill="#fff" fill-rule="evenodd"/>
    <path id="Path_190" data-name="Path 190" d="M442.006,167.835h0l0,.08-.014.085-.012.076-.008.029.051.009.008-.03.013-.076.012-.092.013-.08h-.054Z" transform="translate(-410.777 -155.357)" fill="#fff" fill-rule="evenodd"/>
    <path id="Path_191" data-name="Path 191" d="M441.136,167.04v0l.1,0,.088.025.084.038.072.051.058.059.051.072.034.076.017.089h.05l-.017-.1-.033-.093-.059-.08-.067-.068-.08-.058-.093-.038-.1-.025-.105-.013v.054Z" transform="translate(-410.408 -154.978)" fill="#fff" fill-rule="evenodd"/>
    <path id="Path_192" data-name="Path 192" d="M437.88,167.235l.042.025.042-.021.055-.03.072-.025.092-.025.1-.021.109-.022.122-.021.122-.016.131-.018.135-.013.135-.012.138-.008h.392l.118,0v-.051l-.118,0-.126-.009h-.131l-.135.009-.138.008L438.9,167l-.135.013-.131.017-.13.016-.122.022-.109.021-.1.021-.093.025-.08.026-.063.029-.05.03.042.025-.051-.008Z" transform="translate(-408.958 -154.971)" fill="#fff" fill-rule="evenodd"/>
    <path id="Path_193" data-name="Path 193" d="M438.192,165.58l-.018.021-.294,1.015.051.008.295-1.015-.017.022-.016-.051-.013,0,0,.017.018-.021Z" transform="translate(-408.958 -154.352)" fill="#fff" fill-rule="evenodd"/>
    <path id="Path_194" data-name="Path 194" d="M440.315,165.221h0l-.143-.008-.143,0h-.4l-.122.009-.122,0-.117.009-.115.007-.113.017-.1.017-.105.021-.1.021-.1.029-.1.034-.093.038.016.051.093-.038.1-.033.093-.03.1-.021.106-.021.1-.017.105-.017.115-.008.117-.009.122,0h.518l.143,0h.143v-.05Z" transform="translate(-409.208 -154.187)" fill="#fff" fill-rule="evenodd"/>
    <path id="Path_195" data-name="Path 195" d="M443.263,166.659h0l.021-.173v-.16l-.029-.148-.047-.139-.067-.13-.085-.118-.1-.105-.1-.093-.122-.08-.126-.075-.135-.059-.131-.051-.138-.037-.131-.03-.13-.021-.118-.009v.05l.118.009.122.021.13.029.13.038.131.05.126.059.126.067.113.08.106.092.092.1.084.109.059.123.047.13.03.139v.16l-.021.165h0l.051.008Z" transform="translate(-410.712 -154.197)" fill="#fff" fill-rule="evenodd"/>
    <path id="Path_196" data-name="Path 196" d="M443.585,170.021h0l.442-2.222-.051-.008-.442,2.223h0l.051.008Z" transform="translate(-411.476 -155.336)" fill="#fff" fill-rule="evenodd"/>
    <path id="Path_197" data-name="Path 197" d="M440.55,169.759l-.008-.025-.016-.021-.03-.013-.042-.012-.046,0-.055,0h-.063l-.063,0-.067.009-.067.008-.067.009-.064.008-.062.013-.056.008-.055.013-.042.008-.029,0-.034.013-.042.013-.047.017-.055.025-.05.026-.059.03-.054.037-.055.038-.055.046-.046.046-.046.055-.038.059-.03.063-.025.068-.012.071,0,.143.02.113.035.085.05.063.063.042.072.025.071.013.071,0,.126,0,.117-.013.11-.021.1-.029.092-.034.08-.038.076-.043.067-.05.06-.046.05-.054.047-.051.038-.055.029-.05.022-.051.017-.05.012-.046.017-.118.022-.122.016-.118.008-.106Z" transform="translate(-409.485 -156.178)" fill="#fbb231" fill-rule="evenodd"/>
    <path id="Path_198" data-name="Path 198" d="M457.379,171.994l.01-.1.032-.114.059-.1.072-.088.089-.071.1-.051.109-.034.117-.012.118.012.109.034.1.051.089.071.071.088.059.1.033.114.009.1h-.127l0-.076-.026-.093-.042-.084-.055-.072-.067-.059-.08-.042-.093-.029-.1-.009-.1.009-.092.029-.08.042-.068.059-.054.072-.042.084-.025.093-.009.076Z" transform="translate(-417.642 -156.956)" fill="#fff" fill-rule="evenodd"/>
    <path id="Path_199" data-name="Path 199" d="M458.064,172.248V172h.231l.051,0,.046.008.033.013.03.017.021.025.017.025.008.029,0,.03,0,.038-.008.03-.012.025-.009.009h-.177l.017,0,.03,0,.025-.008.021-.009.017-.012.009-.013.008-.02v-.03l0-.021-.008-.017-.012-.008-.013-.008-.021,0-.021,0h-.173v.164Z" transform="translate(-417.947 -157.209)" fill="#fff" fill-rule="evenodd"/>
    <path id="Path_200" data-name="Path 200" d="M457.377,172.451l0,.025.013.122.032.113.059.1.072.084.089.071.1.056.109.033.117.013.118-.013.109-.033.1-.056.089-.071.071-.084.059-.1.033-.113.012-.122,0-.025h-.127l0,.025-.008.1-.026.093-.042.08-.055.071-.067.06-.08.046-.093.03-.1.008-.1-.008-.092-.03-.08-.046-.068-.06-.054-.071-.042-.08-.025-.093-.009-.1v-.025Z" transform="translate(-417.64 -157.412)" fill="#fff" fill-rule="evenodd"/>
    <path id="Path_201" data-name="Path 201" d="M458.064,172.451v.256h.106v-.21h.1l.126.21h.085l-.126-.21h.029l.029-.009.025-.008.021-.017.008-.012h-.177l-.021,0h-.1v0Z" transform="translate(-417.947 -157.412)" fill="#fff" fill-rule="evenodd"/>
    <path id="Path_202" data-name="Path 202" d="M457.373,172.019h0l.013-.123.032-.114.059-.1.072-.088.089-.071.1-.051.109-.034.118-.012h0l.118.012.109.034.1.051.089.071.072.088.059.1.033.114.012.123h0l-.012.122-.033.113-.059.1-.072.084-.089.071-.1.055-.109.033-.118.013h0l-.118-.013-.109-.033-.1-.055-.089-.071-.072-.084-.059-.1-.032-.113-.013-.122m.489.232h-.106v-.51h.231l.052,0,.046.008.033.013.029.017.022.025.017.026.008.029,0,.03h0l0,.038-.008.029-.013.026-.017.021-.021.017-.026.008-.029.009h-.029l.126.211h-.085l-.126-.211h-.1v.211m.1-.253h0l.038-.009.03,0,.025-.008.021-.008.017-.013.008-.013.008-.02v-.03h0l0-.021-.009-.017-.012-.008-.013-.009-.022,0-.021,0h-.172V172h.1m0,.509h0l.1-.008.093-.03.08-.045.067-.06.055-.07.042-.08.026-.093.008-.1h0l-.008-.1-.026-.093-.042-.084-.055-.072-.067-.059-.08-.042-.093-.03-.1-.008h0l-.1.008-.093.03-.08.042-.068.059-.054.072-.042.084-.025.093-.008.1h0l.008.1.025.093.042.08.054.07.068.06.08.045.093.03.1.008" transform="translate(-417.64 -156.955)" fill="none" stroke="#fff" stroke-miterlimit="2.613" stroke-width="0.216"/>
    <path id="Path_203" data-name="Path 203" d="M444.151,169.832h1.188l.425-2.4.017-.092.026-.093.025-.093.034-.093.042-.092.05-.089.055-.084.067-.08.076-.071.084-.068.1-.064.109-.05.122-.041.135-.034.147-.025.164-.009h.105l.19-1.081-.118.008-.113.013-.105.021-.1.029-.092.034-.088.043-.085.046-.08.05-.075.06-.072.059-.067.068-.067.067-.064.072-.063.08-.063.076-.059.085.126-.762h-1.183l-.787,4.508Z" transform="translate(-411.751 -154.217)" fill="#fff" fill-rule="evenodd"/>
    <path id="Path_204" data-name="Path 204" d="M444.151,169.832h1.188l.425-2.4h0l.017-.092.026-.093.025-.093.034-.093.042-.092.05-.089.055-.084.067-.08.076-.071.084-.068.1-.064.109-.05.122-.041.135-.034.147-.025.164-.009h.105l.19-1.081h0l-.118.008-.113.013-.105.021-.1.029-.092.034-.088.043-.085.046-.08.05-.075.06-.072.059-.067.068-.067.067-.064.072-.063.08-.063.076-.059.085.126-.762h-1.183l-.787,4.508h0" transform="translate(-411.751 -154.217)" fill="none" stroke="#fff" stroke-miterlimit="2.613" stroke-width="0.216"/>
    <path id="Path_205" data-name="Path 205" d="M424.05,169.832h1.208l.4-2.4.017-.092.021-.089.021-.088.03-.084.033-.084.043-.08.05-.076.059-.072.067-.064.076-.062.093-.051.1-.046.118-.038.131-.033.143-.022.164-.012h.013l.017,0,.021,0h.021l.021,0,.017,0,.012,0h0l0-.017.012-.051.017-.076.021-.093.029-.109.03-.118.038-.118.037-.118.034-.08.042-.08.042-.079.042-.071.038-.063.029-.051.021-.029.008-.012h0l-.017,0-.021,0-.03,0H427.3l-.034,0-.03,0h-.03l-.131.008-.117.013-.11.021-.1.026-.1.033-.089.043-.08.041-.076.05-.071.055-.068.063-.063.063-.063.071-.063.072-.059.08-.063.083-.064.085.151-.762h-1.208l-.787,4.508Z" transform="translate(-402.798 -154.217)" fill="#fff" fill-rule="evenodd"/>
    <path id="Path_206" data-name="Path 206" d="M424.05,169.832h1.208l.4-2.4h0l.017-.092.021-.089.021-.088.03-.084.033-.084.043-.08.05-.076.059-.072.067-.064.076-.062.093-.051.1-.046.118-.038.131-.033.143-.022.164-.012h.013l.017,0,.021,0h.021l.021,0,.017,0,.012,0h0l0-.017.012-.051.017-.076.021-.093.029-.109.03-.118.038-.118.037-.118h0l.034-.08.042-.08.042-.079.042-.071.038-.063.029-.051.021-.029.008-.012h0l-.017,0-.021,0-.03,0H427.3l-.034,0-.03,0h-.03l-.131.008-.117.013-.11.021-.1.026-.1.033-.089.043-.08.041-.076.05-.071.055-.068.063-.063.063-.063.071-.063.072-.059.08-.063.083-.064.085.151-.762h-1.208l-.787,4.508h0" transform="translate(-402.798 -154.217)" fill="none" stroke="#fff" stroke-miterlimit="2.613" stroke-width="0.216"/>
    <path id="Path_207" data-name="Path 207" d="M457.4,181.1v-.017l.032-.109.059-.1.071-.084.089-.067.1-.051.109-.029.117-.013.118.013.109.029.1.051.089.067.071.084.059.1.033.109v.017h-.122l-.026-.088-.042-.08-.055-.072-.067-.059-.08-.047-.093-.029-.1-.009-.1.009-.092.029-.08.047-.068.059-.054.072-.042.08-.026.088Z" transform="translate(-417.65 -161.057)" fill="#fbb231" fill-rule="evenodd"/>
    <path id="Path_208" data-name="Path 208" d="M458.064,181.358v-.147h.282l.046.008.033.008.03.017.021.022.017.025.008.029,0,.038h-.084v-.021l0-.021-.008-.017-.012-.008-.013-.009-.021,0-.021,0h-.173v.084Z" transform="translate(-417.947 -161.314)" fill="#fbb231" fill-rule="evenodd"/>
    <path id="Path_209" data-name="Path 209" d="M457.374,181.568l.013-.092h.122v0l-.009.089Z" transform="translate(-417.64 -161.432)" fill="#fbb231" fill-rule="evenodd"/>
    <path id="Path_210" data-name="Path 210" d="M458.064,181.568v-.092h.106v.084h.1l.038-.008.03,0,.025-.009.021-.008.017-.012.009-.013.008-.02v-.009h.084l0,.029-.008.025-.012.021-.017.016Z" transform="translate(-417.947 -161.432)" fill="#fbb231" fill-rule="evenodd"/>
    <path id="Path_211" data-name="Path 211" d="M459.28,181.568l-.008-.089v0h.122l.012.092Z" transform="translate(-418.485 -161.432)" fill="#fbb231" fill-rule="evenodd"/>
    <path id="Path_212" data-name="Path 212" d="M457.374,181.642v.013l.013.122.032.114.059.1.072.088.089.072.1.05.109.034.117.012.118-.012.109-.034.1-.05.089-.072.071-.088.059-.1.033-.114.012-.122v-.013h-.126v.013l-.008.1-.026.093-.042.08L458.3,182l-.067.06-.08.046-.093.03-.1.008-.1-.008-.092-.03-.08-.046-.068-.06-.054-.071-.042-.08-.025-.093-.009-.1v-.013Z" transform="translate(-417.64 -161.506)" fill="#fbb231" fill-rule="evenodd"/>
    <path id="Path_213" data-name="Path 213" d="M458.064,181.642v.245h.106v-.211h.1l.126.211h.085l-.126-.211h.029l.029-.008.025-.009.021-.017h-.4Z" transform="translate(-417.947 -161.506)" fill="#fbb231" fill-rule="evenodd"/>
    <path id="Path_214" data-name="Path 214" d="M421.019,166.631l-.034-.252-.059-.224-.084-.193-.105-.169-.126-.143-.139-.118-.152-.1-.165-.076-.167-.064-.173-.042-.173-.029-.173-.017-.164,0-.342.018-.3.05-.274.076-.244.105-.21.126-.186.143-.164.16-.134.169-.118.177-.1.185-.075.182-.064.18-.046.178-.034.163-.024.156-.017.135-.022.345.013.311.046.282.07.248.1.223.122.194.143.172.164.143.176.122.19.105.2.08.206.063.21.051.211.029.21.021.206,0h.139l.131,0h.113l.11,0,.1-.008.089-.008.084-.008.076-.013.072-.013.067-.016.068-.022.063-.021.063-.026.068-.024.067-.034.068-.034.168-1.035-.122.072-.118.067-.121.052-.119.046-.114.038-.118.025-.114.021-.113.017-.114.008-.109,0h-.114l-.109,0-.109-.008-.109-.013-.106-.013-.109-.017-.084-.017-.084-.029-.084-.037-.076-.047-.075-.05-.068-.063-.063-.064-.059-.072-.05-.071-.045-.079-.034-.077-.029-.08-.017-.08-.008-.08,0-.071.011-.054h2.731l.021-.257.064-.354.029-.32Zm-1.141.388H418.34l0,0h0l.011-.059.017-.088.026-.084.029-.084.038-.075.038-.072.046-.068.05-.063.055-.059.054-.05.064-.046.062-.038.072-.034.072-.024.072-.017.075-.013.08,0,.076.008.072.013.068.017.067.024.063.034.063.038.055.042.05.05.042.059.043.063.029.072.029.08.016.084.008.093.005.1Z" transform="translate(-399.637 -154.183)" fill="#fff" fill-rule="evenodd"/>
  </g>
</svg>
