<svg xmlns="http://www.w3.org/2000/svg" width="77.2" height="90.806" viewBox="0 0 77.2 90.806">
  <g id="Logo" transform="translate(-599.931 -836.185)">
    <path id="Path_26" data-name="Path 26" d="M1288.167,866.418q0,12.028,0,24.056c-.134,5.019-6.047,6.047-9.615,3.543q-11.063-7.23-22.2-14.351c-13.926-8.962-27.914-17.831-41.8-26.85-2.5-1.616-3.71-3.773-3.128-6.858a5.7,5.7,0,0,1,8.308-3.6c16.424,10.13,32.265,21.216,48.784,31.182,4.115,2.336,8.264-.5,8.358-4.972.189-8.917.242-17.836.281-26.754a5.507,5.507,0,0,1,7.325-5.359,5,5,0,0,1,3.544,4.367c.351,8.526.092,17.061.167,25.594Z" transform="translate(-611.081)" fill="#c09b67"/>
    <path id="Path_27" data-name="Path 27" d="M1209.42,1093.563c0-7.677-.013-15.353.006-23.029.009-3.44,1.579-5.346,4.895-6.087,1.762-.395,3.2.43,4.569,1.3q21.687,14.125,43.422,28.178c7.178,4.662,14.357,9.325,21.488,14.06a5.6,5.6,0,0,1,1.724,7.773,5.693,5.693,0,0,1-7.95,1.5c-4.191-2.662-8.339-5.393-12.512-8.081-11.965-7.67-23.878-15.436-35.869-23.054a5.558,5.558,0,0,0-8.363,4.578c-.249,8.783-.057,17.583-.121,26.371a5.635,5.635,0,0,1-11.268.159c-.049-7.89-.016-15.781-.016-23.672h-.005" transform="translate(-609.483 -195.776)" fill="#fff"/>
    <circle id="Ellipse_1" data-name="Ellipse 1" cx="5.534" cy="5.534" r="5.534" transform="translate(645.196 839.926)" fill="#fff"/>
  </g>
</svg>
