<svg xmlns="http://www.w3.org/2000/svg" xmlns:xlink="http://www.w3.org/1999/xlink" width="50" height="33" viewBox="0 0 50 33">
  <defs>
    <clipPath id="clip-path">
      <rect id="Rectangle_140" data-name="Rectangle 140" width="50" height="33" rx="4" fill="#fff"/>
    </clipPath>
  </defs>
  <g id="Mask_Group_1" data-name="Mask Group 1" clip-path="url(#clip-path)">
    <g id="sa">
      <rect id="Rectangle_141" data-name="Rectangle 141" width="50" height="33" fill="#006c35"/>
      <path id="Path_74" data-name="Path 74" d="M195.511,118.09a.256.256,0,0,0-.12.046.89.89,0,0,0-.374.629c-.007.165-.039.164.069.269.078.112.156.1.313.019a.333.333,0,0,0,.151-.221c.037-.187-.2.089-.227-.12-.052-.194.1-.273.24-.46C195.567,118.163,195.568,118.091,195.511,118.09Zm2.292.013c-.044.006-.1.062-.172.2a.836.836,0,0,0-.118.8,1.2,1.2,0,0,1-.109,1.583.393.393,0,0,1-.507.069.543.543,0,0,1-.3-.427,5.848,5.848,0,0,0-.046-1.375.249.249,0,0,0-.416-.084,3.139,3.139,0,0,0-.755,1.55c-.117.376-.241.267-.328.116-.212-.2-.227-1.755-.484-1.5-.411,1.173.236,2.459.683,2.334.323.134.528-.481.66-1.154.09-.189.16-.211.206-.114-.012.9.064,1.095.294,1.367a.743.743,0,0,0,.971.017l.4-.4a.24.24,0,0,1,.332-.017c.122.111.106.3.368.435a.808.808,0,0,0,.8-.168c.147-.251.182-.338.25-.433.1-.139.284-.078.284-.034-.017.078-.122.154-.05.294.125.093.153.033.227.013.26-.125.456-.69.456-.69.012-.211-.108-.195-.185-.151-.1.061-.106.082-.206.143-.127.019-.374.1-.5-.086a7.513,7.513,0,0,1-.221-.774c0-.017-.167-.361-.013-.383.078.014.245.058.271-.082.082-.136-.176-.522-.351-.717a.378.378,0,0,0-.566-.017c-.142.131-.121.277-.149.416a.651.651,0,0,0,.132.568,1.727,1.727,0,0,1,.315,1.148.461.461,0,0,1-.414.21c-.11-.024-.289-.072-.385-.776-.072-.533.018-1.28-.208-1.63-.051-.132-.095-.26-.168-.25Zm-.725.057c-.068.006-.144.086-.206.24a3.9,3.9,0,0,0-.107.73c-.042.182.19.26.3.025a2.233,2.233,0,0,0,.17-.795c-.025-.139-.085-.206-.153-.2Zm2.679.048c-.07.006-.126.048-.147.151a1.6,1.6,0,0,0,.027.58,2.057,2.057,0,0,0,.326.494c.464.624.91,1.25,1.342,1.9.068.481.117.952.149,1.421a28.634,28.634,0,0,1,.027,3.392c.193.008.5-.311.61-.778a22.629,22.629,0,0,0-.032-2.344c0-.158-.014-.347-.025-.545.5.819.988,1.688,1.466,2.641.174-.083.135-1.063.034-1.2-.382-.823-.91-1.635-1.079-1.947-.061-.113-.268-.428-.513-.791-.045-.518-.094-.957-.126-1.089-.079-.548.225.062.183-.257a3.5,3.5,0,0,0-.757-1.419c-.115-.163-.113-.2-.29.04a1.045,1.045,0,0,0-.074.629c-.047-.068-.1-.148-.187-.248-.308-.264-.327-.279-.582-.494a.631.631,0,0,0-.351-.135Zm7.94.082c-.034-.005-.072.012-.114.074a.478.478,0,0,0-.164.362c.02.289.071.584.09.873l.021.116c-.031-.04-.058-.07-.074-.086-.562-.591.258-.1-.107-.553a4.38,4.38,0,0,0-.664-.652c-.133-.086-.213-.25-.257.029a5.5,5.5,0,0,0-.019.736.99.99,0,0,0,.221.458c.375.461.759.952,1.144,1.463.081,1.044.1,2,.185,3.047-.012.447-.149,1.041-.28,1.1,0,0-.2.114-.332-.013a3.988,3.988,0,0,1-.484-.646.3.3,0,0,0-.471,0,6.5,6.5,0,0,0-.828,1.562c-.068.108-.26.2-.473-.008a2.2,2.2,0,0,1-.292-1.522,1.683,1.683,0,0,0-.16,1.638,1.285,1.285,0,0,0,.6.679.419.419,0,0,0,.622-.067c.284-.294.287-1.046.421-1.194a.249.249,0,0,1,.442-.105,1.086,1.086,0,0,0,.4.349.678.678,0,0,0,.892.063,1.033,1.033,0,0,0,.475-.58,20.367,20.367,0,0,0,.038-3.272c.2.281.4.569.593.86a21.316,21.316,0,0,1,.1,2.679c-.02.172.6-.513.6-.837,0-.284,0-.541,0-.78.3.48.591.968.866,1.461.17-.09.112-1.055,0-1.188-.288-.483-.656-1-.942-1.409-.056-.51-.133-1.111-.168-1.3-.054-.287-.109-.719-.191-1.06a3.621,3.621,0,0,1-.069-.6c.034-.1.16,0,.223-.107a3.821,3.821,0,0,0-.536-1.493c-.076-.138-.214-.091-.385.135-.158.148-.1.486-.04.807.157.819.3,1.653.408,2.485-.205-.305-.456-.674-.7-1.03-.007-.034-.032-.16-.032-.162s-.034-.67-.063-.826c-.005-.063-.02-.082.046-.074a.382.382,0,0,0,.124.082c.071.013.133-.107.09-.219l-.66-1.22A.183.183,0,0,0,207.7,118.289Zm-20.49.021c-.122,0-.257.072-.2.219-.031.08.239.35.286.5.042.106-.042.446.046.477s.193-.236.235-.486c.024-.137.006-.606-.313-.7a.26.26,0,0,0-.05-.006Zm23.342,0c-.028,0-.062.048-.114.158a1.462,1.462,0,0,0-.118.894,49.121,49.121,0,0,1,.57,5.8,1.879,1.879,0,0,1-.114.477,3.829,3.829,0,0,1-.557.65c-.184.137-.576.268-.7.37-.407.235-.409.505-.08.515a2.026,2.026,0,0,0,1.7-.81,2.7,2.7,0,0,0,.275-1.049,24.476,24.476,0,0,0-.309-5.133,2.556,2.556,0,0,1-.055-.482c.037-.094.222.009.288-.1.1-.1-.479-.837-.681-1.152-.04-.079-.065-.144-.1-.141Zm-5.942.032c-.023,0-.058.04-.122.124a2.773,2.773,0,0,0-.153,1.262,27.435,27.435,0,0,1,.757,6.075c.193,0,.416-.441.511-.879a7.454,7.454,0,0,0-.05-1.325c-.016-.354-.4-3.231-.479-3.5-.094-.507.375-.067.324-.362-.162-.372-.567-.913-.694-1.236-.048-.087-.054-.167-.092-.16Zm-14.468.04a.151.151,0,0,0-.116.118c-.011.044.019.118-.021.141-.023.023-.111.008-.107-.116a.206.206,0,0,0-.046-.105.092.092,0,0,0-.061-.015c-.039,0-.038.012-.059.044a.363.363,0,0,0-.022.1c0,.044-.022.059-.055.065s-.028,0-.057-.015-.038-.026-.038-.059a.345.345,0,0,0-.019-.109.116.116,0,0,0-.067-.038c-.151,0-.162.174-.153.24-.011.012-.017.32.189.406.277.132.8.076.774-.37,0-.039-.009-.172-.013-.208a.119.119,0,0,0-.13-.082Zm3.713,0a.618.618,0,0,0-.252.069.478.478,0,0,0-.082.633c.141.066.281.208.187.286-.4.425-1.432,1.134-1.484,1.264l0,0s0,0,0,0,0,0,0,0l0,0,0,0h0l0,0h0l0,0a2.945,2.945,0,0,0,.772,0l0,0h0s0,0,0,0a10.893,10.893,0,0,0,1.278-1.289c-.055-.047-.105-.081-.16-.128s-.053-.1,0-.151a.419.419,0,0,0,.042-.639.681.681,0,0,0-.315-.063Zm9.706,0c-.028,0-.062.046-.114.156a1.772,1.772,0,0,0-.2.894c.27,1.871.353,3.509.53,5.381a.74.74,0,0,1-.132.549,5.274,5.274,0,0,1-1.785,1.3c-.075.084.187.444.526.444a1.993,1.993,0,0,0,1.527-1.222,2.178,2.178,0,0,0,.347-.938,20.474,20.474,0,0,0-.381-4.752.784.784,0,0,1,.017-.332c.037-.044.161,0,.227-.107.1-.1-.259-.919-.46-1.234-.04-.079-.065-.142-.1-.139Zm-15.036.057a.249.249,0,0,0-.187.158,5.419,5.419,0,0,0,.019.877,9.586,9.586,0,0,1,.246,1.409c.018.665-.384.288-.366-.042a3,3,0,0,0-.015-1.274c-.066-.171-.141-.213-.3-.185-.126-.008-.453.348-.545.938a5.537,5.537,0,0,0-.109.572c-.045.3-.246.52-.387-.042-.121-.409-.2-1.415-.4-1.18-.058.786-.127,2.169.54,2.311.808.078.362-1.365.654-1.627.055-.129.158-.132.166.032v1.226a.589.589,0,0,0,.458.6c.212-.016.352-.011.435.2q.05,1.06.1,2.122s.49.141.513-1.192a12.458,12.458,0,0,1-.05-1.592c0-.15.2-.157.328-.084.211.149.3.332.633.259.5-.138.8-.38.807-.763a3.325,3.325,0,0,0-.229-1.093c.022-.066-.1-.239-.074-.3.09.141.225.129.257,0a1.093,1.093,0,0,0-.431-.664c-.177-.156-.435-.123-.53.2a1.767,1.767,0,0,0,.408,1.18,1.156,1.156,0,0,1,.1.589.315.315,0,0,1-.41-.08s-.4-.3-.4-.364a1.425,1.425,0,0,0-.036-.94,1.268,1.268,0,0,0-.263-.517c-.1-.105-.234-.105-.3,0a1.781,1.781,0,0,0,.034,1.251c.092.269.232.437.166.437-.055.152-.168.117-.25-.059a4.372,4.372,0,0,1-.141-1.148c-.035-.3-.074-.948-.273-1.112a.189.189,0,0,0-.177-.09Zm2.836,0c-.04.005-.084.028-.137.04a.4.4,0,0,0-.282.492c.2,1.233.335,2.175.538,3.408.031.144-.09.335-.246.315-.265-.18-.331-.543-.784-.528a.882.882,0,0,0-.749.7,1.71,1.71,0,0,0,0,.807.656.656,0,0,0,.749.185c.2-.082.363-.278.433-.231h0s0,0,0,0c.043.076,0,.717-.938,1.213-.574.258-1.031.319-1.276-.149-.152-.293.011-1.408-.364-1.15-1.108,2.857,2.6,3.256,3.011.118.027-.089.108-.177.166-.156.025.011.048.045.057.109-.086,2.842-2.867,3.037-3.339,2.143a2.757,2.757,0,0,1-.164-.961.479.479,0,0,0-.114-.307c-.113-.085-.264.136-.3.519a3.444,3.444,0,0,0-.034.69c.148,2.245,3.727,1.28,4.308-.574a6.176,6.176,0,0,0,.09-1.77l0,0,0,0,0,0,.013,0c.355.383.854.049.963-.084a.16.16,0,0,1,.246-.023.574.574,0,0,0,.864-.246,7.776,7.776,0,0,0,.12-1.064,1.078,1.078,0,0,0-.385.16.1.1,0,0,0-.027.05c-.016.1-.031.2-.046.3a.076.076,0,0,1-.008.023.1.1,0,0,1-.034.032c-.064.035-.175.015-.181-.078-.086-.39-.439-.441-.654.164-.144.117-.408.14-.435-.036.035-.406-.128-.46-.456-.269-.105-.8-.21-1.572-.315-2.376.137,0,.262.1.387-.061a4.515,4.515,0,0,0-.582-1.356l0,0a.212.212,0,0,0-.023-.023l-.01-.008-.011-.006-.021-.008a.109.109,0,0,0-.044,0Zm11.057.006c-.142,0-.3.085-.238.263-.036.1.3.426.36.606.1.276-.075.54.027.578s.226-.285.275-.589a.915.915,0,0,0-.366-.852.292.292,0,0,0-.059-.006Zm-8.614.3a.209.209,0,0,1,.181.137c.041.09.02.175-.046.191s-.153-.043-.193-.132-.02-.177.046-.193Zm15.98.414a.209.209,0,0,0-.214.286c-.032.1.276.461.326.656.045.139-.068.585.025.627s.207-.309.252-.637c.025-.18-.108-.811-.334-.923A.238.238,0,0,0,209.78,119.177Zm-8.835.219c.012.053.024.106.032.16.026.117.049.232.074.347-.1-.141-.187-.254-.223-.294C200.6,119.334,200.832,119.428,200.945,119.4Zm2.035,1a.154.154,0,0,0-.116.12c-.011.044.021.116-.019.139-.023.023-.113.01-.109-.114a.213.213,0,0,0-.046-.107.092.092,0,0,0-.061-.015c-.039,0-.038.012-.059.044a.382.382,0,0,0-.021.1c0,.044-.02.059-.053.065s-.03,0-.059-.015-.038-.026-.038-.059a.346.346,0,0,0-.019-.109.114.114,0,0,0-.067-.036c-.151,0-.16.172-.151.238-.011.012-.019.322.187.408.277.132.8.074.776-.372,0-.039-.011-.172-.015-.208a.119.119,0,0,0-.13-.082Zm-9.293.093a.224.224,0,0,0-.13.04.57.57,0,0,0-.187.755.369.369,0,0,0,.4.128c.24.03.383-.45.383-.45s.007-.135-.278.12c-.12.022-.136-.021-.166-.088a.6.6,0,0,1,.038-.376c.027-.075,0-.122-.057-.128Zm13.137.061a.31.31,0,0,0-.318.267c0,.11.049.17.04.269-.014.057-.073.094-.212.027.022-.02-.09-.179-.09-.179-.109-.066-.254,0-.349.065a.531.531,0,0,0-.032.423c.156.289.693.782.948.786,0-.26.03-.607.044-.822.006-.081.025-.171.1-.191s.213.078.214-.006a1.116,1.116,0,0,0-.141-.526.264.264,0,0,0-.208-.114Zm-10.875.906-.01.006-.006,0a1.341,1.341,0,0,1-.13.118c-.12.137-.142.232-.135.507.007.029.229.645.416,1.079a3.346,3.346,0,0,1,.158,1.453,3.579,3.579,0,0,1-1.468,1.535.767.767,0,0,1-.614,0l0,0A.38.38,0,0,1,194,125.8s0,0,0,0l0,0a3.459,3.459,0,0,0,1.474-1.524,1.56,1.56,0,0,0,.04-1.1,1.044,1.044,0,0,0-.248-.509l0,0c.083-.04.3.118.33.019a1.6,1.6,0,0,0-.423-.78.357.357,0,0,0-.519-.032c-.178.1-.216.456-.13.767.1.235.353.276.536.749,0,0,0,0,0,0,0,.03.063.353-.029.484a5.792,5.792,0,0,1-1.106,1.039l-.006,0,0,0,0,0,0,0h0l0,0v0l0,0c0-.019,0-.067,0-.145-.006-.142.053-.464.048-.519,0,0,0,0,0,0l0,0s0,0,0,0h0c-.318.206-.423.835-.482,1.022a15.1,15.1,0,0,0-2.248,1.535c-.274.429,1.891-.492,2.143-.6l.006.006c.048.053.052.236.2.4a1.145,1.145,0,0,0,1.169.376,3.709,3.709,0,0,0,1.688-1.4c.065-.1.168-.17.263-.1a2.645,2.645,0,0,0,2.395,1.257c.271-.33.142-.492.032-.561-.034-.023-.583-.237-.669-.45-.054-.2.077-.374.339-.507a11.77,11.77,0,0,0,2.21-.423,1.946,1.946,0,0,1,.244-.757.357.357,0,0,1,.124-.135l0,0,0,0,0,0v0a.068.068,0,0,0,0-.021l-.122-.072-2.4-.011a.256.256,0,0,1-.065-.034l0,0,0,0,0,0,0,0,0,0v0l0,0v-.017l0,0,0,0a.18.18,0,0,1,.076-.044c.574-.078,1.593-.245,1.661-1.226a.805.805,0,1,0-1.581.034c-.022.132.045.391-.09.421-.883.081-1.847.634-1.88,1.03h0l0,0,0,0h0l-.006,0h-.013l-.008,0a.23.23,0,0,1-.12-.244,4.739,4.739,0,0,0-.606-2.056c-.125-.125-.179-.175-.214-.181h-.017Zm2.3.362a.151.151,0,0,0-.116.118c-.011.044.021.118-.019.141-.023.023-.113.01-.109-.114a.214.214,0,0,0-.046-.107.086.086,0,0,0-.059-.015c-.039,0-.04.012-.061.044a.382.382,0,0,0-.021.1c0,.044-.02.059-.053.065s-.027,0-.057-.015-.04-.026-.04-.059a.348.348,0,0,0-.017-.109.12.12,0,0,0-.069-.036c-.151,0-.16.172-.151.238-.011.012-.019.322.187.408.277.132.936.054.776-.372,0-.039-.011-.172-.015-.208a.119.119,0,0,0-.13-.082Zm9.283.381a.045.045,0,0,0-.023,0s-1.282.912-1.314.944c-.127.113-.064.511,0,.465a5.105,5.105,0,0,0,1.358-.942c.056,0,.083-.45-.021-.469Zm-8.071.135a.328.328,0,0,1,.187.05c.1.055.155.139.147.2,0,0,0,0,0,.006s0,0,0,.006l0,.006,0,0,0,0a.084.084,0,0,1-.013.015.234.234,0,0,1-.252-.021.252.252,0,0,1-.147-.2s0,0,0-.006a.071.071,0,0,1,.008-.021.094.094,0,0,1,0-.008l0,0,.011-.011a.12.12,0,0,1,.061-.023Zm-11.23.231a2.136,2.136,0,0,0-1.663,1.348c.7-.337,1.39-.661,2.1-1.009C188.556,122.732,188.664,122.577,188.231,122.565Zm2.153.3a.18.18,0,0,1,.17.124.215.215,0,0,1-.038.214s0,0,0,0l0,0c-.028.036-.126.021-.2.021a.19.19,0,0,1-.177-.086c-.024-.076.049-.151.082-.208l0,0a.112.112,0,0,1,.015-.017.22.22,0,0,1,.116-.05Zm16.9.264a.223.223,0,0,0-.179.3c-.032.1.16.472.21.667.045.139-.058.531.036.572s.313-.233.3-.582c.025-.18-.064-.842-.29-.955a.213.213,0,0,0-.082-.006Zm-14.352.648c-.1.007-.2.063-.156.21-.006.107.3.237.313.484.043.1-.064.428.025.458s.2-.225.24-.467c.024-.132-.1-.594-.32-.677a.37.37,0,0,0-.1-.008Zm4.3.587h.027a7.447,7.447,0,0,0,1.005.116c.279.018.417.236.156.328s-.506.157-.507.53a.514.514,0,0,1,0,.326l-.008.01,0,0,0,0,0,0,0,0,0,0-.013.006-.013,0c-.061.009-.15-.049-.217-.084a1.363,1.363,0,0,1-.669-.984.25.25,0,0,1,.252-.261Zm-10.492.456c-.017,0-.05.051-.095.107a2.085,2.085,0,0,0-.212,1.85.461.461,0,0,0,.448.149.822.822,0,0,0,.3-.795c-.083-.13-.149-.15-.231-.04-.175.355-.248.112-.263-.086a4.553,4.553,0,0,1,.05-1c.022-.141.021-.19,0-.189Zm13.468.827a.181.181,0,0,0-.093.019,1.68,1.68,0,0,0-.372.317c-.054.041-.048.077-.032.149.042.1.117.067.2.021.113-.015.167.058.158.193a.249.249,0,0,0,.023.242.187.187,0,0,0,.236.029,4.454,4.454,0,0,1,.812-.284c.1,0,.093-.266-.063-.275a.923.923,0,0,0-.6.181c-.125.029-.147-.047-.174-.116-.032-.17.072-.289.05-.416A.294.294,0,0,0,200.2,125.646Zm8.623.322c-.05,0-.1.008-.179.015s-.111.054-.126.153c.006.152.1.144.193.2a.164.164,0,0,1,0,.248c-.09.082-.154.128-.244.21-.042.072-.069.184.061.219.24.067.795-.293.795-.3a.176.176,0,0,0,.053-.2c-.052-.06-.171-.024-.25-.034-.038,0-.162-.018-.1-.128a.744.744,0,0,0,.1-.193c.037-.082,0-.138-.13-.183a.749.749,0,0,0-.166-.015Zm-3.6,7.294,0,0a.379.379,0,0,0-.13.7c-4.212,0-10.675-.071-12.061-.071-.775,0-3.229-.093-3.276-.093a2.484,2.484,0,0,0,2.286.942c1.871,0,10.538-.023,13-.023a.864.864,0,0,0,.154.9l.01.006.017.006h.006c.163.039.235-.08.29-.166a16.9,16.9,0,0,0,1.892,0l0,0c.092.136.184.264.36.242.307-.066.55-.1.557-.723,0,0-.031-1.063-.73-1-.165.025-.629.071-.629.071-.536-.064-.93-.07-1.533-.093.056-.071.154-.357.034-.46a.194.194,0,0,0-.143-.036h-.006l0,0-.006,0a.064.064,0,0,1-.011-.01l0,0c-.03-.044-.047-.153-.067-.181l0,0,0,0,0,0h0Zm.286,1.52h0c.614.03,1.192.006,1.806.036a.223.223,0,0,1-.015.307l-.011,0h-.017l-.515-.015a.117.117,0,0,0,0-.029c-.047-.14-.39-.131-.471-.021l0,.006,0,.008,0,.011a.106.106,0,0,0,0,.015.1.1,0,0,0,0,.017,4.824,4.824,0,0,1-.782-.019C205.406,135,205.416,134.824,205.509,134.781Z" transform="translate(-173.759 -110.144)" fill="#fff" fill-rule="evenodd"/>
    </g>
  </g>
</svg>
