<svg xmlns="http://www.w3.org/2000/svg" width="18.639" height="15.145" viewBox="0 0 18.639 15.145">
  <path id="Path_8883" data-name="Path 8883" d="M3884.084,2628.231a7.947,7.947,0,0,1-2.2.6,3.8,3.8,0,0,0,1.681-2.112,7.656,7.656,0,0,1-2.423.925,3.821,3.821,0,0,0-6.61,2.613,3.933,3.933,0,0,0,.088.872,10.817,10.817,0,0,1-7.876-4,3.821,3.821,0,0,0,1.174,5.107,3.773,3.773,0,0,1-1.726-.47v.042a3.839,3.839,0,0,0,3.062,3.755,3.8,3.8,0,0,1-1,.125,3.38,3.38,0,0,1-.724-.065,3.857,3.857,0,0,0,3.571,2.662,7.675,7.675,0,0,1-4.738,1.63,7.135,7.135,0,0,1-.915-.053,10.876,10.876,0,0,0,16.738-9.159c0-.169-.006-.332-.014-.494A7.629,7.629,0,0,0,3884.084,2628.231Z" transform="translate(-3865.445 -2626.438)" fill="#1b1e1f"/>
</svg>
