<svg xmlns="http://www.w3.org/2000/svg" width="19.559" height="19.562" viewBox="0 0 19.559 19.562">
  <path id="Path_199" data-name="Path 199" d="M165.511,403.213h-8.583a5.5,5.5,0,0,0-5.488,5.491v8.58a5.5,5.5,0,0,0,5.488,5.491h8.583A5.5,5.5,0,0,0,171,417.284V408.7A5.5,5.5,0,0,0,165.511,403.213Zm3.693,14.071a3.7,3.7,0,0,1-3.693,3.693h-8.583a3.7,3.7,0,0,1-3.693-3.693V408.7a3.7,3.7,0,0,1,3.693-3.693h8.583A3.7,3.7,0,0,1,169.2,408.7ZM161.22,408a4.989,4.989,0,1,0,4.99,4.99A4.995,4.995,0,0,0,161.22,408Zm0,8.184a3.193,3.193,0,1,1,3.192-3.194A3.2,3.2,0,0,1,161.22,416.187Zm6.386-8.483a1.2,1.2,0,1,1-1.2-1.2A1.2,1.2,0,0,1,167.605,407.7Z" transform="translate(-151.44 -403.213)" fill="#1b1e1f"/>
</svg>
