<svg xmlns="http://www.w3.org/2000/svg" width="24" height="24" viewBox="0 0 24 24">
  <g id="setting-2" transform="translate(-300 -190)">
    <g id="Share" transform="translate(278.442 -32.498)">
      <path id="Path_976" data-name="Path 976" d="M20.129,8.955h-1.8a.66.66,0,0,0,0,1.32h1.8a.661.661,0,0,1,.66.66v8.633a.661.661,0,0,1-.66.66H10.206a.661.661,0,0,1-.66-.66V10.936a.661.661,0,0,1,.66-.66h1.8a.66.66,0,0,0,0-1.32h-1.8a1.983,1.983,0,0,0-1.98,1.98v8.633a1.983,1.983,0,0,0,1.98,1.98H20.13a1.983,1.983,0,0,0,1.98-1.98V10.936a1.983,1.983,0,0,0-1.981-1.98ZM12.706,7.623,14.53,5.8V14.49a.66.66,0,1,0,1.32,0V5.8l1.823,1.823a.66.66,0,1,0,.934-.933l-2.95-2.95a.66.66,0,0,0-.934,0l-2.95,2.95a.66.66,0,1,0,.933.933Z" transform="translate(18.332 221.953)" fill="#1b1e1f"/>
    </g>
    <path id="Vector" d="M0,0H24V24H0Z" transform="translate(300 190)" fill="none" opacity="0"/>
  </g>
</svg>
