<svg id="Text" xmlns="http://www.w3.org/2000/svg" width="196.182" height="53.205" viewBox="0 0 196.182 53.205">
  <path id="Path_28" data-name="Path 28" d="M721.683,1659.706l-3.12,0H718.5l-2.983,0h-5.006c-55.6-.009-113.1-.019-169.615-.026h-.035a7.309,7.309,0,0,1-1.8-.15,2.8,2.8,0,0,1-1.017-.472,2.133,2.133,0,0,1-.637-.764,2.242,2.242,0,0,1-.222-1.046,3.185,3.185,0,0,1,.282-1.207c.266.06.281.272.3.458a1.323,1.323,0,0,0,.014.134,2.224,2.224,0,0,0,.719,1.365,2.559,2.559,0,0,0,1.439.532c.426.039.777.058,1.1.058,5.5,0,11.305.007,18.284.008.621,0,.952-.008,1.118-.177s.166-.5.153-1.127c-.012-.5-.007-1,0-1.494a19.743,19.743,0,0,0-.172-3.481,4.521,4.521,0,0,0-1.377-2.747,4.333,4.333,0,0,0-2.909-.959c-2.177-.013-4.352-.015-6-.015h-6.976c-.147-.277,0-.4.134-.51.027-.023.053-.044.076-.066.464-.455.933-.92,1.387-1.369l0,0c1.286-1.273,2.617-2.589,3.969-3.84a4.888,4.888,0,0,1,1.376-.915,3.526,3.526,0,0,1,1.4-.3,3.186,3.186,0,0,1,2.657,1.482,2.692,2.692,0,0,1,.3.565.423.423,0,0,1-.033.342.185.185,0,0,1-.16.09.586.586,0,0,1-.241-.082l-.007,0a.939.939,0,0,1-.14-.092h0c-.028-.021-.056-.042-.086-.062a4.213,4.213,0,0,0-2.187-.877,2.118,2.118,0,0,0-1.108.331,6.378,6.378,0,0,0-1.222,1.01c-.593.6-1.16,1.19-1.761,1.819-.266.279-.541.567-.819.856a.766.766,0,0,0,.575.226c.074,0,.148-.006.213-.012h0c.069-.006.135-.011.2-.011h.006c.566,0,1.164,0,1.883,0,.588,0,1.207,0,1.706,0h1.659c1.1,0,2.538,0,3.986.021a9.094,9.094,0,0,1,1.806.195,6.752,6.752,0,0,1,1.618.567,5.963,5.963,0,0,1,1.4.983,6.766,6.766,0,0,1,1.149,1.444,7.64,7.64,0,0,1,.981,3.8c.036,1.057.037,2.172,0,3.509a.934.934,0,0,0,.191.7.982.982,0,0,0,.727.212h0c5.307-.006,10.274-.009,15.185-.009,6.511,0,12.835.005,18.8.016h0a.942.942,0,0,0,.692-.21,1.124,1.124,0,0,0,.209-.827c-.012-1.394-.019-2.811-.026-4.181v-.031c-.008-1.555-.016-3.162-.031-4.744-.008-.791,0-1.213.21-1.427.177-.179.5-.212,1.058-.212l.356,0c.451.007.9.007,1.241.007h1.038c.3,0,.54,0,.768,0h0c.029,0,.063,0,.09-.006a.921.921,0,0,1,.093-.006.181.181,0,0,1,.2.146c.057.226-.109.282-.269.338h0l-.048.017-.007,0c-.705.254-1.059.382-1.238.631s-.182.622-.185,1.359c0,.9,0,1.818,0,2.7v0c0,1.747,0,3.553-.031,5.33a1.137,1.137,0,0,0,.226.855,1.2,1.2,0,0,0,.9.244h.009c5.7-.011,11.316-.013,15.566-.013h15c.559,0,.858-.008,1.011-.167s.161-.472.161-1.053c0-.657,0-1.323,0-2v0c0-2.369.006-4.819-.029-7.227a1.283,1.283,0,0,1,.24-.958.959.959,0,0,1,.72-.224c.055,0,.115,0,.176.006.4.025.848.037,1.4.037.287,0,.573,0,.848-.006h0c.277,0,.563-.006.845-.006.115,0,.222,0,.324,0h0c.037,0,.077,0,.119-.009h.009a1.3,1.3,0,0,1,.134-.009.215.215,0,0,1,.246.181h0a.215.215,0,0,1,0,.046.217.217,0,0,1-.056.171.5.5,0,0,1-.347.116,1.218,1.218,0,0,0-1.106.483,2.126,2.126,0,0,0-.257,1.182c0,.61,0,1.23,0,1.83v.02c0,2.147,0,4.368-.039,6.553a1.1,1.1,0,0,0,.215.824,1.124,1.124,0,0,0,.836.23h.008c5.741-.011,11.34-.012,15.577-.012h16.374c.615,0,.9-.026,1.06-.188s.188-.451.187-1.082c0-.905-.005-1.827-.009-2.718v-.035c-.009-1.973-.018-4.013,0-6.02a1.512,1.512,0,0,0-1.347-1.761c-.035-.006-.073-.01-.113-.015a.469.469,0,0,1-.322-.111.229.229,0,0,1-.035-.18c.026-.185.17-.209.307-.209.04,0,.081,0,.117,0h0c.04,0,.077,0,.112,0h0c.391,0,.78,0,1.143,0h.634c.577,0,1.249,0,1.917-.013h.04a.751.751,0,0,1,.584.186.713.713,0,0,1,.12.573.577.577,0,0,0,.062.435.207.207,0,0,0,.165.063,1.3,1.3,0,0,0,.428-.118,8.659,8.659,0,0,1,3.3-.594h.035c1.618,0,3.262.005,4.853.006h.018c1.519,0,3.091,0,4.641.006a8.242,8.242,0,0,1,3.418.659,5.607,5.607,0,0,1,2.117,1.676,6.56,6.56,0,0,1,1.175,2.429,6.876,6.876,0,0,1,.1,2.884,6.424,6.424,0,0,1-.425,1.406,6.149,6.149,0,0,1-.762,1.294c-.217.283-.453.556-.726.872h0c-.144.166-.293.34-.46.537H702c6.676,0,14.243.005,21.5.011h.041a6.5,6.5,0,0,0,2.148-.251,3.9,3.9,0,0,0,1.172-.623,3.28,3.28,0,0,0,.779-.888,4.055,4.055,0,0,0,.446-1.1,6.259,6.259,0,0,0,.171-1.263c.079-1.961.092-4.045.042-6.369a1.227,1.227,0,0,1,.236-.913,1.018,1.018,0,0,1,.765-.233c.056,0,.114,0,.176,0,.418.022.862.032,1.439.032.269,0,.538,0,.8,0h.016c.259,0,.525,0,.788,0h.378c.034,0,.072,0,.109-.006s.075-.006.114-.006c.1,0,.213.02.239.174a.267.267,0,0,1-.047.222.5.5,0,0,1-.386.127,1.206,1.206,0,0,0-1.058.484,2.034,2.034,0,0,0-.248,1.137c0,.36,0,.725,0,1.079v0c.006,1.1.013,2.235-.035,3.35a6.988,6.988,0,0,1-.559,2.5,5.929,5.929,0,0,1-1.352,1.941,6.01,6.01,0,0,1-2.014,1.259,7.2,7.2,0,0,1-2.544.454c-1.037,0-2.129.006-3.436.006m-38.441-11.463c-1.4,0-2.549,0-3.6.01a2.907,2.907,0,0,0-3.213,3.2c-.009.87-.007,1.755-.005,2.61v.005c0,1.139.005,2.315-.018,3.473a1.1,1.1,0,0,0,.225.822,1.071,1.071,0,0,0,.8.238h.063c.753-.014,1.57-.021,2.569-.021.563,0,1.136,0,1.69,0h.024c.559,0,1.136,0,1.713,0v-.006c.626,0,1.283,0,1.81,0h.043c.58,0,1.179,0,1.768,0,.916,0,1.67,0,2.374-.013a4.05,4.05,0,0,0,2.112-.557,3.624,3.624,0,0,0,1.4-1.677,7.6,7.6,0,0,0,.661-2.953,7.8,7.8,0,0,0-.56-2.965,3.343,3.343,0,0,0-1.27-1.635,3.653,3.653,0,0,0-2.03-.541h-1.672l-2.427,0h-.039l-2.415,0" transform="translate(-537.182 -1641.582)" fill="#c39a63"/>
  <path id="Path_29" data-name="Path 29" d="M582.792,1911.4c0,2.277-.022,4.555.013,6.832a1.572,1.572,0,0,1-.808,1.62,1.755,1.755,0,0,1-1.827-.138q-6.155-3.972-12.327-7.919c-2.172-1.393-4.356-2.769-6.517-4.177-1.327-.865-1.483-2.206-.377-3.021a1.681,1.681,0,0,1,2.058.049q4.266,2.739,8.53,5.481c1.707,1.1,3.441,2.151,5.116,3.292,1.147.782,2.868.395,2.845-1.413-.032-2.552.07-5.106.076-7.659a1.6,1.6,0,0,1,1.064-1.572,1.569,1.569,0,0,1,1.838.487,1.654,1.654,0,0,1,.307,1.217c.007,2.308,0,4.616,0,6.924Z" transform="translate(-557.867 -1876.05)" fill="#c19a62"/>
  <path id="Path_30" data-name="Path 30" d="M559.862,2004.6c0-2.123.012-4.246-.006-6.369a1.776,1.776,0,0,1,3.028-1.616q7.228,4.7,14.459,9.389c1.367.887,2.74,1.76,4.1,2.653a1.775,1.775,0,0,1,.753,2.445,1.733,1.733,0,0,1-2.516.328q-6.714-4.3-13.412-8.629a2.01,2.01,0,0,0-2.222-.368c-.829.458-.891,1.243-.887,2.075q.019,3.37,0,6.739c-.006,1.234-.6,1.9-1.643,1.9-1.007,0-1.643-.721-1.648-1.9-.009-2.216,0-4.431,0-6.646" transform="translate(-557.546 -1959.947)" fill="#fff"/>
  <path id="Path_31" data-name="Path 31" d="M2003.47,1972.233c-.359,0-.723-.006-1.075-.011h0c-.354-.005-.719-.011-1.077-.011-.218,0-.415,0-.6.006h-.028a.509.509,0,0,1-.391-.126.7.7,0,0,1-.085-.537c.006-.07.011-.135.011-.2-.009-2.844-.009-5.734-.008-8.529v-2.091c0-.471,0-.951,0-1.415v0c.005-1.109.011-2.256-.015-3.384a.816.816,0,0,1,.155-.612.746.746,0,0,1,.561-.162h.077c.584.017,1.154.018,1.634.018h1.244c.4,0,.932,0,1.462.014a5.234,5.234,0,0,1,1.328.2,3.6,3.6,0,0,1,1.056.492,2.87,2.87,0,0,1,.754.764,2.98,2.98,0,0,1,.425,1.011,3.633,3.633,0,0,1-.227,2.434,4.015,4.015,0,0,1-1.823,1.755c-.047.025-.091.054-.165.1l-.176.113a7.518,7.518,0,0,1,2.484,1.5,4.719,4.719,0,0,1,1.362,2.431,4.935,4.935,0,0,1-.553,3.871,4.494,4.494,0,0,1-1.4,1.361,6.056,6.056,0,0,1-2.063.787,14.864,14.864,0,0,1-2.861.226m-.763-9.6h0a.462.462,0,0,0-.344.113.824.824,0,0,0-.131.587c.007.859.005,1.734,0,2.579v0c0,.3,0,.663,0,1.012v2.031a7.8,7.8,0,0,0,.109,1.857c.109.358.326.5.774.5a11.22,11.22,0,0,0,1.691-.24,4.737,4.737,0,0,0,2.376-1.125,3.433,3.433,0,0,0,1.1-2.079,5.426,5.426,0,0,0,.013-1.461,3.846,3.846,0,0,0-.387-1.243,3.8,3.8,0,0,0-.787-1.031,5.262,5.262,0,0,0-1.189-.821,7.781,7.781,0,0,0-2.977-.661l-.148-.013c-.035,0-.07,0-.1,0Zm.006-6.51a.467.467,0,0,0-.348.117.6.6,0,0,0-.13.447c.005.51,0,1.009,0,1.587v.009c0,.248,0,.505,0,.779a3.37,3.37,0,0,1-.044.909c-.08.6-.162,1.228.257,1.541a1.218,1.218,0,0,0,.757.22,5.734,5.734,0,0,0,1.722-.412l.252-.087a2.411,2.411,0,0,0,1.792-2.74,2.479,2.479,0,0,0-.591-1.566,2.683,2.683,0,0,0-1.6-.7,9.37,9.37,0,0,0-1.318-.08c-.229,0-.465-.006-.7-.019h-.053Z" transform="translate(-1851.145 -1923.208)" fill="#c49b65"/>
  <path id="Path_32" data-name="Path 32" d="M926.078,1972.561a1.435,1.435,0,0,1-.43-.077.466.466,0,0,0-.138-.018,1.841,1.841,0,0,0-.3.038c-.095.017-.2.037-.322.048l.521-1.412.005-.014h0c.359-.975.7-1.9,1.046-2.83.486-1.3.992-2.659,1.438-3.855h0c1.019-2.727,2.069-5.546,3.1-8.32.139-.374.282-.661.751-.661.025,0,.051,0,.078,0h.019c.41.025.706.042.893.525,1.513,3.9,3.067,7.851,4.567,11.675l0,0c.591,1.508,1.2,3.067,1.812,4.619a.262.262,0,0,1,0,.125c0,.032-.009.069-.011.115-.151-.01-.3-.027-.453-.043a6.88,6.88,0,0,0-.74-.054,2.38,2.38,0,0,0-.7.095.468.468,0,0,1-.137.023c-.216,0-.271-.211-.319-.4-.013-.05-.025-.1-.04-.14-.362-1.021-.714-2.022-1.03-3.051a.855.855,0,0,0-.942-.722h-.039c-.941.019-1.923.026-3,.026-.9,0-1.854-.006-2.995-.019h-.023a.725.725,0,0,0-.823.607c-.132.443-.291.887-.445,1.314-.163.454-.331.922-.467,1.392-.159.55-.335,1.006-.871,1.006m5.667-5.29c1.083,0,1.916,0,2.7.008h.015c.214,0,.334-.035.39-.115s.047-.211-.034-.433c-.737-2.018-1.464-4.035-2.234-6.17l-.012-.033-.794-2.2c-.555,1.526-1.09,3-1.619,4.448l-.061.168-.193.529-1.386,3.8h1.659l1.568,0" transform="translate(-885.389 -1923.481)" fill="#c39a64"/>
  <path id="Path_33" data-name="Path 33" d="M2278.939,1960.908c1.3-1.225,2.547-2.4,3.793-3.575.938-.887,1.638-2.235,3.413-1.575l-6.947,7.057a9.2,9.2,0,0,1,3.381,2.026,7.434,7.434,0,0,1,1.339,2.7c.552,1.527.922,3.157,2.519,4.032.16.088.283.251.063.436-.272.229-.459.536-.941.348a4.511,4.511,0,0,1-2.41-2.524,28.207,28.207,0,0,0-2.03-4.323,4.707,4.707,0,0,0-1.569-1.4c-.488-.278-.626-.148-.621.395.02,2.307,0,4.614.017,6.922,0,.585.034.957-.81.8-1.238-.234-1.254-.149-1.254-1.463q0-7.291,0-14.582c0-.456-.109-1.011.663-.835.554.127,1.494-.483,1.414.858-.093,1.559-.022,3.129-.022,4.7" transform="translate(-2099.641 -1923.352)" fill="#c39a63"/>
  <path id="Path_34" data-name="Path 34" d="M1233.937,1960.3c.12.172.2.263.252.365a3.135,3.135,0,0,0,3.392,1.823,3.6,3.6,0,0,0,2.563-2.96,4.043,4.043,0,0,0-1.214-3.613c-1.1-1.072-2.428-1.89-3.477-3.027-1.451-1.573-2.256-3.284-1.315-5.444a2.715,2.715,0,0,1,1.767-1.618,4.817,4.817,0,0,1,2.736-.049c1.964.56,1.982.874,1.06,2.628a11.643,11.643,0,0,0-.865-.935,2.261,2.261,0,0,0-2.576-.213,2.044,2.044,0,0,0-.585,2.494,6.2,6.2,0,0,0,2.106,2.393c.912.729,1.93,1.322,2.771,2.143a5.54,5.54,0,0,1,1.068,6.233,5.278,5.278,0,0,1-4.91,3.421,5.146,5.146,0,0,1-3.358-1.547.513.513,0,0,1-.125-.715l.012-.016c.245-.416.443-.86.7-1.363" transform="translate(-1162.23 -1914.627)" fill="#c39b63"/>
  <path id="Path_35" data-name="Path 35" d="M1755.812,1970.364c.226,1.558.219,1.624-1.156,1.934-1.927.433-3.795.438-5.336-1.088a4.035,4.035,0,0,1-.977-3.076c-.015-4.063,0-8.125-.019-12.187,0-.571.18-.734.739-.727,2.093.029,4.186.025,6.278,0,.507-.006.682.124.683.665s-.161.681-.675.672c-1.508-.028-3.016.007-4.524-.018-.52-.009-.7.164-.687.689.03,1.353.032,2.708,0,4.062-.014.553.219.675.711.666,1.2-.022,2.4,0,3.6-.006.37,0,.615,0,.617.523s-.264.516-.624.514c-1.139-.007-2.279.033-3.416-.019-.673-.031-.923.145-.9.863.056,1.506.012,3.016.02,4.524a2.967,2.967,0,0,0,4.325,2.825,6.021,6.021,0,0,0,1.336-.816" transform="translate(-1624.935 -1923.266)" fill="#c49b65"/>
  <path id="Path_36" data-name="Path 36" d="M1504.771,1970.334c.208,1.525.207,1.586-1.167,1.916a6.371,6.371,0,0,1-3.817-.1,3.513,3.513,0,0,1-2.485-3.424c-.043-4.307-.015-8.616-.034-12.924,0-.476.137-.642.626-.637,2.154.022,4.308.035,6.462-.007.652-.013.508.331.563.729.074.528-.107.624-.576.616-1.446-.022-2.895.035-4.338-.027-.76-.032-.934.246-.905.945.05,1.229.041,2.462,0,3.692-.019.593.159.816.773.793,1.137-.041,2.277,0,3.415-.016.412,0,.7.022.69.578-.01.571-.377.458-.692.46-1.17.009-2.34.028-3.508-.006-.535-.015-.683.182-.676.692.025,1.538.023,3.077.005,4.616-.013,1.13.129,2.22,1.293,2.726a3.728,3.728,0,0,0,3.858-.281c.165-.117.243-.375.511-.338" transform="translate(-1399.456 -1923.209)" fill="#c29a62"/>
  <path id="Path_38" data-name="Path 38" d="M1393.631,1843.942a2.217,2.217,0,1,1,2.346-2.2,2.259,2.259,0,0,1-2.346,2.2" transform="translate(-1304.227 -1819.349)" fill="#c19b63"/>
  <path id="Path_39" data-name="Path 39" d="M1454.818,1842.432a2.235,2.235,0,0,1-2.362-2.266,2.271,2.271,0,0,1,2.386-2.154,2.327,2.327,0,0,1,2.34,2.129,2.3,2.3,0,0,1-2.363,2.291" transform="translate(-1359.209 -1818)" fill="#c19a63"/>
  <path id="Path_40" data-name="Path 40" d="M1067.738,1842.5a2.192,2.192,0,0,1-2.289-2.228,2.256,2.256,0,0,1,2.341-2.193,2.217,2.217,0,1,1-.052,4.422" transform="translate(-1011.63 -1818.064)" fill="#c19b63"/>
  <path id="Path_41" data-name="Path 41" d="M2329.974,1672.161a2.37,2.37,0,1,1-2.305-2.222,2.224,2.224,0,0,1,2.305,2.222" transform="translate(-2143.082 -1667.049)" fill="#c29b62"/>
  <ellipse id="Ellipse_2" data-name="Ellipse 2" cx="1.57" cy="1.57" rx="1.57" ry="1.57" transform="translate(15.641 27.776)" fill="#fff"/>
</svg>
