<svg xmlns="http://www.w3.org/2000/svg" width="39.898" height="28.618" viewBox="0 0 39.898 28.618">
  <g id="ticket" transform="translate(0 0)">
    <path id="Path_6955" data-name="Path 6955" d="M348.675,10.885h-3.9l-.484-1.267-.342-.887-.273-.708-.823-2.135L342.31,4.47l-.342-.886L341.512,2.4,347.421.125a1.9,1.9,0,0,1,2.458,1.1L351.7,5.946a1.9,1.9,0,0,0,.678,3.673l.69-.127.741,1.935Zm0,0" transform="translate(-314.476)" fill="#f6bb42"/>
    <path id="Path_6956" data-name="Path 6956" d="M379.829,47.035a.316.316,0,0,1-.3-.2L376.018,37.7a.316.316,0,1,1,.591-.227l3.515,9.133a.316.316,0,0,1-.3.43Zm0,0" transform="translate(-346.232 -34.317)" fill="#edab37"/>
    <path id="Path_6957" data-name="Path 6957" d="M407.987,75.718a.317.317,0,0,1-.3-.2L405.3,69.3a.317.317,0,0,1,.591-.227l2.393,6.219a.316.316,0,0,1-.182.409A.321.321,0,0,1,407.987,75.718Zm0,0" transform="translate(-373.194 -63.414)" fill="#edab37"/>
    <path id="Path_6958" data-name="Path 6958" d="M31.665,155.24H1.9a1.9,1.9,0,0,1-1.9-1.9v-5.066a1.9,1.9,0,0,0,1.9-1.9,1.9,1.9,0,0,0-1.9-1.9v-5.066a1.9,1.9,0,0,1,1.9-1.9H31.665Zm0,0" transform="translate(0 -126.622)" fill="#ac92ec"/>
    <path id="Path_6959" data-name="Path 6959" d="M400,153.34V137.508h6.333a1.9,1.9,0,0,1,1.9,1.9v5.066a1.9,1.9,0,1,0,0,3.8v5.066a1.9,1.9,0,0,1-1.9,1.9H400Zm0,0" transform="translate(-368.335 -126.622)" fill="#ffce54"/>
    <path id="Path_6960" data-name="Path 6960" d="M66.051,38.783h-3.3L84.821,30.3l.457,1.185.342.886.545,1.419.822,2.135.273.708.826,2.153Zm0,0" transform="translate(-57.786 -27.899)" fill="#967adc"/>
    <path id="Path_6961" data-name="Path 6961" d="M396.317,151.083a.317.317,0,0,1-.317-.317v-.95a.317.317,0,0,1,.633,0v.95A.316.316,0,0,1,396.317,151.083Zm0,0" transform="translate(-364.651 -137.665)" fill="#ac92ec"/>
    <path id="Path_6962" data-name="Path 6962" d="M396.317,195.641a.317.317,0,0,1-.317-.317v-1.9a.317.317,0,0,1,.633,0v1.9A.317.317,0,0,1,396.317,195.641Zm0-3.8a.317.317,0,0,1-.317-.317v-1.9a.317.317,0,1,1,.633,0v1.9A.317.317,0,0,1,396.317,191.841Zm0-3.8a.317.317,0,0,1-.317-.317v-1.9a.317.317,0,0,1,.633,0v1.9A.317.317,0,0,1,396.317,188.041Zm0,0" transform="translate(-364.651 -170.822)" fill="#ac92ec"/>
    <path id="Path_6963" data-name="Path 6963" d="M396.317,331.091a.317.317,0,0,1-.317-.317v-.95a.317.317,0,1,1,.633,0v.95A.317.317,0,0,1,396.317,331.091Zm0,0" transform="translate(-364.651 -303.423)" fill="#ac92ec"/>
    <path id="Path_6964" data-name="Path 6964" d="M428.317,172.074a.317.317,0,0,1-.317-.317V157.824a.317.317,0,1,1,.633,0v13.933A.317.317,0,0,1,428.317,172.074Zm0,0" transform="translate(-394.118 -145.039)" fill="#f6bb42"/>
    <path id="Path_6965" data-name="Path 6965" d="M444.317,205.741a.317.317,0,0,1-.317-.317v-7.6a.317.317,0,1,1,.633,0v7.6A.317.317,0,0,1,444.317,205.741Zm0,0" transform="translate(-408.851 -181.872)" fill="#f6bb42"/>
    <g id="Group_11122" data-name="Group 11122" transform="translate(8.883 12.468)">
      <path id="Path_6966" data-name="Path 6966" d="M112.526,325.508h-.006a.314.314,0,0,0-.313.317.318.318,0,1,0,.319-.317Zm0,0" transform="translate(-112.207 -312.208)" fill="#967adc"/>
      <path id="Path_6967" data-name="Path 6967" d="M164.52,245.508a.314.314,0,0,0-.313.317.318.318,0,1,0,.32-.317Zm0,0" transform="translate(-160.091 -238.541)" fill="#967adc"/>
      <path id="Path_6968" data-name="Path 6968" d="M196.526,158.133a.317.317,0,0,0,0-.633h-.006a.314.314,0,0,0-.313.317A.319.319,0,0,0,196.526,158.133Zm0,0" transform="translate(-189.557 -157.5)" fill="#967adc"/>
      <path id="Path_6969" data-name="Path 6969" d="M340.526,174.133a.317.317,0,0,0,0-.633h-.006a.314.314,0,0,0-.313.317A.319.319,0,0,0,340.526,174.133Zm0,0" transform="translate(-322.158 -172.233)" fill="#967adc"/>
      <path id="Path_6970" data-name="Path 6970" d="M268.52,253.508a.314.314,0,0,0-.313.317.318.318,0,1,0,.32-.317Zm0,0" transform="translate(-255.858 -245.908)" fill="#967adc"/>
      <path id="Path_6971" data-name="Path 6971" d="M136.526,325.508h-.006a.314.314,0,0,0-.313.317.318.318,0,1,0,.319-.317Zm0,0" transform="translate(-134.307 -312.208)" fill="#967adc"/>
      <path id="Path_6972" data-name="Path 6972" d="M160.526,325.508h-.006a.314.314,0,0,0-.313.317.318.318,0,1,0,.319-.317Zm0,0" transform="translate(-156.407 -312.208)" fill="#967adc"/>
      <path id="Path_6973" data-name="Path 6973" d="M184.526,325.508h-.006a.314.314,0,0,0-.313.317.318.318,0,1,0,.319-.317Zm0,0" transform="translate(-178.507 -312.208)" fill="#967adc"/>
      <path id="Path_6974" data-name="Path 6974" d="M208.526,325.508h-.006a.314.314,0,0,0-.313.317.318.318,0,1,0,.319-.317Zm0,0" transform="translate(-200.607 -312.208)" fill="#967adc"/>
      <path id="Path_6975" data-name="Path 6975" d="M232.526,325.508h-.006a.314.314,0,0,0-.313.317.318.318,0,1,0,.319-.317Zm0,0" transform="translate(-222.707 -312.208)" fill="#967adc"/>
      <path id="Path_6976" data-name="Path 6976" d="M256.526,325.508h-.006a.314.314,0,0,0-.313.317.318.318,0,1,0,.319-.317Zm0,0" transform="translate(-244.807 -312.208)" fill="#967adc"/>
      <path id="Path_6977" data-name="Path 6977" d="M280.526,325.508h-.006a.314.314,0,0,0-.313.317.318.318,0,1,0,.319-.317Zm0,0" transform="translate(-266.908 -312.208)" fill="#967adc"/>
      <path id="Path_6978" data-name="Path 6978" d="M304.526,325.508h-.006a.314.314,0,0,0-.313.317.318.318,0,1,0,.319-.317Zm0,0" transform="translate(-289.008 -312.208)" fill="#967adc"/>
    </g>
    <path id="Path_6979" data-name="Path 6979" d="M93.267,185.624a.317.317,0,1,0,.633,0v-3.483h.95a.317.317,0,0,0,0-.633H92.317a.317.317,0,0,0,0,.633h.95Zm0,0" transform="translate(-84.717 -167.139)" fill="#f5f7fa"/>
    <path id="Path_6980" data-name="Path 6980" d="M290.85,181.5h-2.533a.317.317,0,0,0,0,.633h.95v3.483a.317.317,0,1,0,.633,0v-3.483h.95a.317.317,0,0,0,0-.633Zm0,0" transform="translate(-265.201 -167.132)" fill="#f5f7fa"/>
    <path id="Path_6981" data-name="Path 6981" d="M140.317,185.941a.317.317,0,0,0,.317-.317v-3.8a.317.317,0,0,0-.633,0v3.8A.317.317,0,0,0,140.317,185.941Zm0,0" transform="translate(-128.917 -167.139)" fill="#f5f7fa"/>
    <path id="Path_6982" data-name="Path 6982" d="M208.317,185.941a.317.317,0,0,0,.317-.317v-1.161l.287-.383,1.024,1.707a.317.317,0,0,0,.544-.327l-1.158-1.927,1.14-1.52a.317.317,0,1,0-.507-.379l-1.33,1.773v-1.583a.317.317,0,0,0-.633,0v3.8A.317.317,0,0,0,208.317,185.941Zm0,0" transform="translate(-191.534 -167.139)" fill="#f5f7fa"/>
    <path id="Path_6983" data-name="Path 6983" d="M165.267,185.941a1.268,1.268,0,0,0,1.267-1.267.317.317,0,1,0-.633,0,.633.633,0,1,1-1.267,0v-1.9a.633.633,0,1,1,1.267,0,.317.317,0,0,0,.633,0,1.267,1.267,0,1,0-2.533,0v1.9A1.268,1.268,0,0,0,165.267,185.941Zm0,0" transform="translate(-151.017 -167.139)" fill="#f5f7fa"/>
    <path id="Path_6984" data-name="Path 6984" d="M252.317,185.941h1.9a.317.317,0,1,0,0-.633h-1.583v-1.267h.95a.317.317,0,0,0,0-.633h-.95v-1.267h1.583a.317.317,0,0,0,0-.633h-1.9a.317.317,0,0,0-.317.317v3.8A.317.317,0,0,0,252.317,185.941Zm0,0" transform="translate(-232.051 -167.139)" fill="#f5f7fa"/>
    <path id="Path_6985" data-name="Path 6985" d="M124.149,277.508H108.317a.317.317,0,0,0,0,.633h15.833a.317.317,0,0,0,0-.633Zm0,0" transform="translate(-99.45 -255.539)" fill="#967adc"/>
    <path id="Path_6986" data-name="Path 6986" d="M171.6,293.824a.317.317,0,0,0-.317-.317h-6.966a.317.317,0,0,0,0,.633h6.966A.317.317,0,0,0,171.6,293.824Zm0,0" transform="translate(-151.017 -270.273)" fill="#967adc"/>
    <path id="Path_6987" data-name="Path 6987" d="M333.583,222.141h-.317v-.317a.317.317,0,1,0-.633,0v.317h-.317a.317.317,0,1,0,0,.633h.317v.317a.317.317,0,0,0,.633,0v-.317h.317a.317.317,0,1,0,0-.633Zm0,0" transform="translate(-305.718 -203.973)" fill="#967adc"/>
    <path id="Path_6988" data-name="Path 6988" d="M53.583,182.141h-.317v-.317a.317.317,0,0,0-.633,0v.317h-.317a.317.317,0,1,0,0,.633h.317v.317a.317.317,0,0,0,.633,0v-.317h.317a.316.316,0,1,0,0-.633Zm0,0" transform="translate(-47.884 -167.139)" fill="#967adc"/>
    <path id="Path_6989" data-name="Path 6989" d="M343.936,42.787a.318.318,0,0,1-.3-.2L343.3,41.7a.317.317,0,0,1,.591-.228l.342.886a.316.316,0,0,1-.182.409A.3.3,0,0,1,343.936,42.787Zm0,0" transform="translate(-316.102 -38.001)" fill="#967adc"/>
    <path id="Path_6990" data-name="Path 6990" d="M355.349,72.438a.317.317,0,0,1-.3-.2l-.547-1.421a.316.316,0,0,1,.591-.228l.547,1.421a.316.316,0,0,1-.182.409A.324.324,0,0,1,355.349,72.438Zm0,0" transform="translate(-326.423 -64.812)" fill="#967adc"/>
    <path id="Path_6991" data-name="Path 6991" d="M368.976,107.823a.317.317,0,0,1-.3-.2l-.342-.886a.317.317,0,0,1,.591-.228l.342.887a.316.316,0,0,1-.295.43Zm0,0" transform="translate(-339.16 -97.889)" fill="#967adc"/>
  </g>
</svg>
