<svg xmlns="http://www.w3.org/2000/svg" width="21.5" height="21.56" viewBox="0 0 21.5 21.56">
  <path id="Vector" d="M10.75,21.56a2.265,2.265,0,0,1-1.8-.96l-1.5-2a.472.472,0,0,0-.2-.1h-.5C2.58,18.5,0,17.37,0,11.75v-5C0,2.33,2.33,0,6.75,0h8c4.42,0,6.75,2.33,6.75,6.75v5c0,4.42-2.33,6.75-6.75,6.75h-.5a.261.261,0,0,0-.2.1l-1.5,2A2.265,2.265,0,0,1,10.75,21.56ZM6.75,1.5C3.17,1.5,1.5,3.17,1.5,6.75v5C1.5,16.27,3.05,17,6.75,17h.5a1.876,1.876,0,0,1,1.4.7l1.5,2a.694.694,0,0,0,1.2,0l1.5-2a1.752,1.752,0,0,1,1.4-.7h.5C18.33,17,20,15.33,20,11.75v-5c0-3.58-1.67-5.25-5.25-5.25Z" fill="#1b1e1f"/>
</svg>
