<svg xmlns="http://www.w3.org/2000/svg" width="21.5" height="17.5" viewBox="0 0 21.5 17.5">
  <path id="Vector" d="M15.75,17.5h-10C1.34,17.5,0,16.16,0,11.75v-.5a.755.755,0,0,1,.75-.75A1.75,1.75,0,0,0,.75,7,.755.755,0,0,1,0,6.25v-.5C0,1.34,1.34,0,5.75,0h10c4.41,0,5.75,1.34,5.75,5.75v1a.755.755,0,0,1-.75.75,1.75,1.75,0,0,0,0,3.5.755.755,0,0,1,.75.75C21.5,16.16,20.16,17.5,15.75,17.5ZM1.5,11.91C1.52,15.35,2.23,16,5.75,16h10c3.34,0,4.15-.59,4.24-3.59A3.249,3.249,0,0,1,20,6.09V5.75c0-3.57-.67-4.25-4.25-4.25h-10c-3.52,0-4.23.65-4.25,4.09a3.247,3.247,0,0,1,0,6.32Z" fill="#292d32"/>
</svg>
