<svg id="vuesax_outline_logout" data-name="vuesax/outline/logout" xmlns="http://www.w3.org/2000/svg" width="24" height="24" viewBox="0 0 24 24">
  <g id="logout">
    <path id="Vector" d="M3.308,6.617a.742.742,0,0,0,.53-.22.754.754,0,0,0,0-1.06l-2.03-2.03,2.03-2.03A.75.75,0,1,0,2.778.218L.217,2.777a.754.754,0,0,0,0,1.06L2.778,6.4A.742.742,0,0,0,3.308,6.617Z" transform="translate(3.252 8.753)" fill="#ec1c2e"/>
    <path id="Vector-2" data-name="Vector" d="M.75,1.5H10.92a.755.755,0,0,0,.75-.75A.755.755,0,0,0,10.92,0H.75A.755.755,0,0,0,0,.75.755.755,0,0,0,.75,1.5Z" transform="translate(3.32 11.31)" fill="#ec1c2e"/>
    <path id="Vector-3" data-name="Vector" d="M.75,17.5A8.374,8.374,0,0,0,9.5,8.75,8.374,8.374,0,0,0,.75,0,.755.755,0,0,0,0,.75a.755.755,0,0,0,.75.75A6.935,6.935,0,0,1,8,8.75,6.935,6.935,0,0,1,.75,16a.75.75,0,0,0,0,1.5Z" transform="translate(11.49 3.25)" fill="#ec1c2e"/>
    <path id="Vector-4" data-name="Vector" d="M24,0H0V24H24Z" fill="none" opacity="0"/>
  </g>
</svg>
